<svg xmlns="http://www.w3.org/2000/svg" xmlns:xlink="http://www.w3.org/1999/xlink" contentStyleType="text/css" data-diagram-type="SEQUENCE" height="1451px" preserveAspectRatio="none" style="width:890px;height:1451px;background:#FFFFFF;" version="1.1" viewBox="0 0 890 1451" width="890px" zoomAndPan="magnify"><?plantuml 1.2026.6?><defs/><g><g class="title" data-source-line="3"><text fill="#000000" font-family="Verdana" font-size="22" font-weight="700" lengthAdjust="spacing" textLength="540.3535" x="173.8245" y="37.1182">cloudsyncd pairing and protected download</text></g><g class="participant-lifeline" data-entity-uid="part1" data-qualified-name="User" data-source-line="5" id="part1-lifeline"><g><title>Browser user</title><rect fill="#000000" fill-opacity="0.00000" height="1237.1699" width="8" x="55.2622" y="130.752"/><line style="stroke:#000000;stroke-width:1;stroke-dasharray:5,5;" x1="59" x2="59" y1="130.752" y2="1367.9219"/></g></g><g class="participant-lifeline" data-entity-uid="part2" data-qualified-name="Client" data-source-line="6" id="part2-lifeline"><g><title>Browser client</title><rect fill="#000000" fill-opacity="0.00000" height="1237.1699" width="8" x="188.9243" y="130.752"/><line style="stroke:#000000;stroke-width:1;stroke-dasharray:5,5;" x1="192.0493" x2="192.0493" y1="130.752" y2="1367.9219"/></g></g><g class="participant-lifeline" data-entity-uid="part3" data-qualified-name="API" data-source-line="7" id="part3-lifeline"><g><title>Client API</title><rect fill="#000000" fill-opacity="0.00000" height="1237.1699" width="8" x="524.0649" y="130.752"/><line style="stroke:#000000;stroke-width:1;stroke-dasharray:5,5;" x1="527.9282" x2="527.9282" y1="130.752" y2="1367.9219"/></g></g><g class="participant-lifeline" data-entity-uid="part4" data-qualified-name="State" data-source-line="8" id="part4-lifeline"><g><title>data.state.json</title><rect fill="#000000" fill-opacity="0.00000" height="1237.1699" width="8" x="724.521" y="130.752"/><line style="stroke:#000000;stroke-width:1;stroke-dasharray:5,5;" x1="727.9956" x2="727.9956" y1="130.752" y2="1367.9219"/></g></g><g class="participant-lifeline" data-entity-uid="part5" data-qualified-name="Shared" data-source-line="9" id="part5-lifeline"><g><title>shared.</title><rect fill="#000000" fill-opacity="0.00000" height="1237.1699" width="8" x="833.0244" y="130.752"/><line style="stroke:#000000;stroke-width:1;stroke-dasharray:5,5;" x1="836.0464" x2="836.0464" y1="130.752" y2="1367.9219"/></g></g><g class="participant participant-head" data-entity-uid="part1" data-qualified-name="User" data-source-line="5" id="part1-head"><text fill="#000000" font-family="Verdana" font-size="14" lengthAdjust="spacing" textLength="92.5244" x="10" y="127.8125">Browser user</text><ellipse cx="59.2622" cy="61.7373" fill="#FFFFFF" rx="8" ry="8" style="stroke:#000000;stroke-width:1;"/><path d="M59.2622,69.7373 L59.2622,96.7373 M46.2622,77.7373 L72.2622,77.7373 M59.2622,96.7373 L46.2622,111.7373 M59.2622,96.7373 L72.2622,111.7373" fill="none" style="stroke:#000000;stroke-width:1;"/></g><g class="participant participant-tail" data-entity-uid="part1" data-qualified-name="User" data-source-line="5" id="part1-tail"><text fill="#000000" font-family="Verdana" font-size="14" lengthAdjust="spacing" textLength="92.5244" x="10" y="1380.9971">Browser user</text><ellipse cx="59.2622" cy="1392.9365" fill="#FFFFFF" rx="8" ry="8" style="stroke:#000000;stroke-width:1;"/><path d="M59.2622,1400.9365 L59.2622,1427.9365 M46.2622,1408.9365 L72.2622,1408.9365 M59.2622,1427.9365 L46.2622,1442.9365 M59.2622,1427.9365 L72.2622,1442.9365" fill="none" style="stroke:#000000;stroke-width:1;"/></g><g class="participant participant-head" data-entity-uid="part2" data-qualified-name="Client" data-source-line="6" id="part2-head"><rect fill="#FFFFFF" height="44.0293" rx="2.5" ry="2.5" style="stroke:#000000;stroke-width:1;" width="109.75" x="138.0493" y="80.7227"/><text fill="#000000" font-family="Verdana" font-size="14" lengthAdjust="spacing" textLength="99.75" x="143.0493" y="99.7979">Browser client</text><text fill="#000000" font-family="Verdana" font-size="14" lengthAdjust="spacing" textLength="90.6992" x="147.5747" y="116.8125">public/app.js</text></g><g class="participant participant-tail" data-entity-uid="part2" data-qualified-name="Client" data-source-line="6" id="part2-tail"><rect fill="#FFFFFF" height="44.0293" rx="2.5" ry="2.5" style="stroke:#000000;stroke-width:1;" width="109.75" x="138.0493" y="1371.9219"/><text fill="#000000" font-family="Verdana" font-size="14" lengthAdjust="spacing" textLength="99.75" x="143.0493" y="1390.9971">Browser client</text><text fill="#000000" font-family="Verdana" font-size="14" lengthAdjust="spacing" textLength="90.6992" x="147.5747" y="1408.0117">public/app.js</text></g><g class="participant participant-head" data-entity-uid="part3" data-qualified-name="API" data-source-line="7" id="part3-head"><rect fill="#FFFFFF" height="44.0293" rx="2.5" ry="2.5" style="stroke:#000000;stroke-width:1;" width="122.2734" x="466.9282" y="80.7227"/><text fill="#000000" font-family="Verdana" font-size="14" lengthAdjust="spacing" textLength="69.002" x="493.564" y="99.7979">Client API</text><text fill="#000000" font-family="Verdana" font-size="14" lengthAdjust="spacing" textLength="112.2734" x="471.9282" y="116.8125">server.js:21891</text></g><g class="participant participant-tail" data-entity-uid="part3" data-qualified-name="API" data-source-line="7" id="part3-tail"><rect fill="#FFFFFF" height="44.0293" rx="2.5" ry="2.5" style="stroke:#000000;stroke-width:1;" width="122.2734" x="466.9282" y="1371.9219"/><text fill="#000000" font-family="Verdana" font-size="14" lengthAdjust="spacing" textLength="69.002" x="493.564" y="1390.9971">Client API</text><text fill="#000000" font-family="Verdana" font-size="14" lengthAdjust="spacing" textLength="112.2734" x="471.9282" y="1408.0117">server.js:21891</text></g><g class="participant participant-head" data-entity-uid="part4" data-qualified-name="State" data-source-line="8" id="part4-head"><text fill="#000000" font-family="Verdana" font-size="14" lengthAdjust="spacing" textLength="107.0508" x="671.9956" y="127.8125">data/state.json</text><path d="M710.521,77.7373 C710.521,67.7373 728.521,67.7373 728.521,67.7373 C728.521,67.7373 746.521,67.7373 746.521,77.7373 L746.521,103.7373 C746.521,113.7373 728.521,113.7373 728.521,113.7373 C728.521,113.7373 710.521,113.7373 710.521,103.7373 L710.521,77.7373" fill="#FFFFFF" style="stroke:#000000;stroke-width:1;"/><path d="M710.521,77.7373 C710.521,87.7373 728.521,87.7373 728.521,87.7373 C728.521,87.7373 746.521,87.7373 746.521,77.7373" fill="none" style="stroke:#000000;stroke-width:1;"/></g><g class="participant participant-tail" data-entity-uid="part4" data-qualified-name="State" data-source-line="8" id="part4-tail"><text fill="#000000" font-family="Verdana" font-size="14" lengthAdjust="spacing" textLength="107.0508" x="671.9956" y="1380.9971">data/state.json</text><path d="M710.521,1393.9365 C710.521,1383.9365 728.521,1383.9365 728.521,1383.9365 C728.521,1383.9365 746.521,1383.9365 746.521,1393.9365 L746.521,1419.9365 C746.521,1429.9365 728.521,1429.9365 728.521,1429.9365 C728.521,1429.9365 710.521,1429.9365 710.521,1419.9365 L710.521,1393.9365" fill="#FFFFFF" style="stroke:#000000;stroke-width:1;"/><path d="M710.521,1393.9365 C710.521,1403.9365 728.521,1403.9365 728.521,1403.9365 C728.521,1403.9365 746.521,1403.9365 746.521,1393.9365" fill="none" style="stroke:#000000;stroke-width:1;"/></g><g class="participant participant-head" data-entity-uid="part5" data-qualified-name="Shared" data-source-line="9" id="part5-head"><rect fill="#FFFFFF" height="27.0146" rx="2.5" ry="2.5" style="stroke:#000000;stroke-width:1;" width="63.9561" x="805.0464" y="97.7373"/><text fill="#000000" font-family="Verdana" font-size="14" lengthAdjust="spacing" textLength="53.9561" x="810.0464" y="116.8125">shared/</text></g><g class="participant participant-tail" data-entity-uid="part5" data-qualified-name="Shared" data-source-line="9" id="part5-tail"><rect fill="#FFFFFF" height="27.0146" rx="2.5" ry="2.5" style="stroke:#000000;stroke-width:1;" width="63.9561" x="805.0464" y="1371.9219"/><text fill="#000000" font-family="Verdana" font-size="14" lengthAdjust="spacing" textLength="53.9561" x="810.0464" y="1390.9971">shared/</text></g><rect fill="#FFFFFF" height="3" style="stroke:#FFFFFF;stroke-width:1;" width="879.0024" x="5" y="161.6516"/><line style="stroke:#000000;stroke-width:0.5;" x1="5" x2="884.0024" y1="161.6516" y2="161.6516"/><line style="stroke:#000000;stroke-width:0.5;" x1="5" x2="884.0024" y1="164.6516" y2="164.6516"/><rect fill="#FFFFFF" height="23.7993" style="stroke:#000000;stroke-width:1;" width="101.9912" x="393.5056" y="150.752"/><text fill="#000000" font-family="Verdana" font-size="13" font-weight="700" lengthAdjust="spacing" textLength="83.5479" x="399.5056" y="167.8218">PIN pairing</text><g class="message" data-entity-1="part1" data-entity-2="part2" data-source-line="12" id="msg1"><polygon fill="#000000" points="180.9243,202.3506,190.9243,206.3506,180.9243,210.3506,184.9243,206.3506" style="stroke:#000000;stroke-width:1;stroke-linejoin:miter;stroke-miterlimit:10;"/><line style="stroke:#000000;stroke-width:1;" x1="59.2622" x2="186.9243" y1="206.3506" y2="206.3506"/><text fill="#000000" font-family="Verdana" font-size="13" lengthAdjust="spacing" textLength="109.6621" x="66.2622" y="201.6211">Enter 6-digit PIN</text></g><g class="message" data-entity-1="part2" data-entity-2="part3" data-source-line="13" id="msg2"><polygon fill="#000000" points="516.0649,232.1499,526.0649,236.1499,516.0649,240.1499,520.0649,236.1499" style="stroke:#000000;stroke-width:1;stroke-linejoin:miter;stroke-miterlimit:10;"/><line style="stroke:#000000;stroke-width:1;" x1="192.9243" x2="522.0649" y1="236.1499" y2="236.1499"/><text fill="#000000" font-family="Verdana" font-size="13" lengthAdjust="spacing" textLength="113.5723" x="199.9243" y="231.4204">GET /api/pair/init</text></g><g class="message" data-entity-1="part3" data-entity-2="part2" data-source-line="14" id="msg3"><polygon fill="#000000" points="203.9243,261.9492,193.9243,265.9492,203.9243,269.9492,199.9243,265.9492" style="stroke:#000000;stroke-width:1;stroke-linejoin:miter;stroke-miterlimit:10;"/><line style="stroke:#000000;stroke-width:1;stroke-dasharray:2,2;" x1="197.9243" x2="527.0649" y1="265.9492" y2="265.9492"/><text fill="#000000" font-family="Verdana" font-size="13" lengthAdjust="spacing" textLength="103.5684" x="209.9243" y="261.2197">serverPublicKey</text></g><g class="message" data-entity-1="part2" data-entity-2="part2" data-source-line="15" id="msg4"><line style="stroke:#000000;stroke-width:1;" x1="192.9243" x2="234.9243" y1="327.3472" y2="327.3472"/><line style="stroke:#000000;stroke-width:1;" x1="234.9243" x2="234.9243" y1="327.3472" y2="340.3472"/><line style="stroke:#000000;stroke-width:1;" x1="193.9243" x2="234.9243" y1="340.3472" y2="340.3472"/><polygon fill="#000000" points="203.9243,336.3472,193.9243,340.3472,203.9243,344.3472,199.9243,340.3472" style="stroke:#000000;stroke-width:1;stroke-linejoin:miter;stroke-miterlimit:10;"/><text fill="#000000" font-family="Verdana" font-size="13" lengthAdjust="spacing" textLength="202.0713" x="199.9243" y="291.019">Generate P-256 ECDH key pair</text><text fill="#000000" font-family="Verdana" font-size="13" lengthAdjust="spacing" textLength="120.9229" x="199.9243" y="306.8184">HKDF(syncd-auth)</text><text fill="#000000" font-family="Verdana" font-size="13" lengthAdjust="spacing" textLength="73.5313" x="199.9243" y="322.6177">HMAC(PIN)</text></g><g class="message" data-entity-1="part2" data-entity-2="part3" data-source-line="16" id="msg5"><polygon fill="#000000" points="516.0649,381.9458,526.0649,385.9458,516.0649,389.9458,520.0649,385.9458" style="stroke:#000000;stroke-width:1;stroke-linejoin:miter;stroke-miterlimit:10;"/><line style="stroke:#000000;stroke-width:1;" x1="192.9243" x2="522.0649" y1="385.9458" y2="385.9458"/><text fill="#000000" font-family="Verdana" font-size="13" lengthAdjust="spacing" textLength="138.563" x="199.9243" y="365.417">POST /api/pair/verify</text><text fill="#000000" font-family="Verdana" font-size="13" lengthAdjust="spacing" textLength="205.3086" x="199.9243" y="381.2163">clientPublicKey, proof, deviceId</text></g><g class="message" data-entity-1="part3" data-entity-2="part3" data-source-line="17" id="msg6"><line style="stroke:#000000;stroke-width:1;" x1="528.0649" x2="570.0649" y1="447.3438" y2="447.3438"/><line style="stroke:#000000;stroke-width:1;" x1="570.0649" x2="570.0649" y1="447.3438" y2="460.3438"/><line style="stroke:#000000;stroke-width:1;" x1="529.0649" x2="570.0649" y1="460.3438" y2="460.3438"/><polygon fill="#000000" points="539.0649,456.3438,529.0649,460.3438,539.0649,464.3438,535.0649,460.3438" style="stroke:#000000;stroke-width:1;stroke-linejoin:miter;stroke-miterlimit:10;"/><text fill="#000000" font-family="Verdana" font-size="13" lengthAdjust="spacing" textLength="59.2617" x="535.0649" y="411.0156">rate limit</text><text fill="#000000" font-family="Verdana" font-size="13" lengthAdjust="spacing" textLength="122.0146" x="535.0649" y="426.8149">validate public key</text><text fill="#000000" font-family="Verdana" font-size="13" lengthAdjust="spacing" textLength="149.5444" x="535.0649" y="442.6143">compute shared secret</text></g><g class="message" data-entity-1="part3" data-entity-2="part4" data-source-line="18" id="msg7"><polygon fill="#000000" points="716.521,486.1431,726.521,490.1431,716.521,494.1431,720.521,490.1431" style="stroke:#000000;stroke-width:1;stroke-linejoin:miter;stroke-miterlimit:10;"/><line style="stroke:#000000;stroke-width:1;" x1="528.0649" x2="722.521" y1="490.1431" y2="490.1431"/><text fill="#000000" font-family="Verdana" font-size="13" lengthAdjust="spacing" textLength="146.9482" x="535.0649" y="485.4136">store or update device</text></g><g class="message" data-entity-1="part3" data-entity-2="part2" data-source-line="19" id="msg8"><polygon fill="#000000" points="203.9243,531.7417,193.9243,535.7417,203.9243,539.7417,199.9243,535.7417" style="stroke:#000000;stroke-width:1;stroke-linejoin:miter;stroke-miterlimit:10;"/><line style="stroke:#000000;stroke-width:1;stroke-dasharray:2,2;" x1="197.9243" x2="527.0649" y1="535.7417" y2="535.7417"/><text fill="#000000" font-family="Verdana" font-size="13" lengthAdjust="spacing" textLength="79.5171" x="209.9243" y="515.2129">serverProof,</text><text fill="#000000" font-family="Verdana" font-size="13" lengthAdjust="spacing" textLength="133.4468" x="209.9243" y="531.0122">encryptedMasterKey</text></g><g class="message" data-entity-1="part2" data-entity-2="part2" data-source-line="20" id="msg9"><line style="stroke:#000000;stroke-width:1;" x1="192.9243" x2="234.9243" y1="612.939" y2="612.939"/><line style="stroke:#000000;stroke-width:1;" x1="234.9243" x2="234.9243" y1="612.939" y2="625.939"/><line style="stroke:#000000;stroke-width:1;" x1="193.9243" x2="234.9243" y1="625.939" y2="625.939"/><polygon fill="#000000" points="203.9243,621.939,193.9243,625.939,203.9243,629.939,199.9243,625.939" style="stroke:#000000;stroke-width:1;stroke-linejoin:miter;stroke-miterlimit:10;"/><text fill="#000000" font-family="Verdana" font-size="13" lengthAdjust="spacing" textLength="116.1748" x="199.9243" y="560.8115">verify serverProof</text><text fill="#000000" font-family="Verdana" font-size="13" lengthAdjust="spacing" textLength="151.6772" x="199.9243" y="576.6108">HKDF(syncd-transport)</text><text fill="#000000" font-family="Verdana" font-size="13" lengthAdjust="spacing" textLength="123.7349" x="199.9243" y="592.4102">decrypt masterKey</text><text fill="#000000" font-family="Verdana" font-size="13" lengthAdjust="spacing" textLength="106.5962" x="199.9243" y="608.2095">save IndexedDB</text></g><rect fill="#FFFFFF" height="3" style="stroke:#FFFFFF;stroke-width:1;" width="879.0024" x="5" y="654.8386"/><line style="stroke:#000000;stroke-width:0.5;" x1="5" x2="884.0024" y1="654.8386" y2="654.8386"/><line style="stroke:#000000;stroke-width:0.5;" x1="5" x2="884.0024" y1="657.8386" y2="657.8386"/><rect fill="#FFFFFF" height="23.7993" style="stroke:#000000;stroke-width:1;" width="71.3828" x="408.8098" y="643.939"/><text fill="#000000" font-family="Verdana" font-size="13" font-weight="700" lengthAdjust="spacing" textLength="52.9395" x="414.8098" y="661.0088">File list</text><g class="message" data-entity-1="part2" data-entity-2="part2" data-source-line="23" id="msg10"><line style="stroke:#000000;stroke-width:1;" x1="192.9243" x2="234.9243" y1="715.3369" y2="715.3369"/><line style="stroke:#000000;stroke-width:1;" x1="234.9243" x2="234.9243" y1="715.3369" y2="728.3369"/><line style="stroke:#000000;stroke-width:1;" x1="193.9243" x2="234.9243" y1="728.3369" y2="728.3369"/><polygon fill="#000000" points="203.9243,724.3369,193.9243,728.3369,203.9243,732.3369,199.9243,728.3369" style="stroke:#000000;stroke-width:1;stroke-linejoin:miter;stroke-miterlimit:10;"/><text fill="#000000" font-family="Verdana" font-size="13" lengthAdjust="spacing" textLength="157.2124" x="199.9243" y="694.8081">derive request-auth key</text><text fill="#000000" font-family="Verdana" font-size="13" lengthAdjust="spacing" textLength="321.1406" x="199.9243" y="710.6074">HMAC(method,path,timestamp,nonce,bodyHash)</text></g><g class="message" data-entity-1="part2" data-entity-2="part3" data-source-line="24" id="msg11"><polygon fill="#000000" points="516.0649,769.9355,526.0649,773.9355,516.0649,777.9355,520.0649,773.9355" style="stroke:#000000;stroke-width:1;stroke-linejoin:miter;stroke-miterlimit:10;"/><line style="stroke:#000000;stroke-width:1;" x1="192.9243" x2="522.0649" y1="773.9355" y2="773.9355"/><text fill="#000000" font-family="Verdana" font-size="13" lengthAdjust="spacing" textLength="88.3848" x="199.9243" y="753.4067">GET /api/files</text><text fill="#000000" font-family="Verdana" font-size="13" lengthAdjust="spacing" textLength="192.8037" x="199.9243" y="769.2061">X-Device-Id + HMAC headers</text></g><g class="message" data-entity-1="part3" data-entity-2="part3" data-source-line="25" id="msg12"><line style="stroke:#000000;stroke-width:1;" x1="528.0649" x2="570.0649" y1="835.3335" y2="835.3335"/><line style="stroke:#000000;stroke-width:1;" x1="570.0649" x2="570.0649" y1="835.3335" y2="848.3335"/><line style="stroke:#000000;stroke-width:1;" x1="529.0649" x2="570.0649" y1="848.3335" y2="848.3335"/><polygon fill="#000000" points="539.0649,844.3335,529.0649,848.3335,539.0649,852.3335,535.0649,848.3335" style="stroke:#000000;stroke-width:1;stroke-linejoin:miter;stroke-miterlimit:10;"/><text fill="#000000" font-family="Verdana" font-size="13" lengthAdjust="spacing" textLength="123.1572" x="535.0649" y="799.0054">timestamp window</text><text fill="#000000" font-family="Verdana" font-size="13" lengthAdjust="spacing" textLength="125.6709" x="535.0649" y="814.8047">nonce replay check</text><text fill="#000000" font-family="Verdana" font-size="13" lengthAdjust="spacing" textLength="102.8955" x="535.0649" y="830.604">signature check</text></g><g class="message" data-entity-1="part3" data-entity-2="part5" data-source-line="26" id="msg13"><polygon fill="#000000" points="825.0244,874.1328,835.0244,878.1328,825.0244,882.1328,829.0244,878.1328" style="stroke:#000000;stroke-width:1;stroke-linejoin:miter;stroke-miterlimit:10;"/><line style="stroke:#000000;stroke-width:1;" x1="528.0649" x2="831.0244" y1="878.1328" y2="878.1328"/><text fill="#000000" font-family="Verdana" font-size="13" lengthAdjust="spacing" textLength="60.6455" x="535.0649" y="873.4033">walkDir()</text></g><g class="message" data-entity-1="part3" data-entity-2="part2" data-source-line="27" id="msg14"><polygon fill="#000000" points="203.9243,903.9321,193.9243,907.9321,203.9243,911.9321,199.9243,907.9321" style="stroke:#000000;stroke-width:1;stroke-linejoin:miter;stroke-miterlimit:10;"/><line style="stroke:#000000;stroke-width:1;stroke-dasharray:2,2;" x1="197.9243" x2="527.0649" y1="907.9321" y2="907.9321"/><text fill="#000000" font-family="Verdana" font-size="13" lengthAdjust="spacing" textLength="186.3799" x="209.9243" y="903.2026">AES-GCM encrypted file tree</text></g><g class="message" data-entity-1="part2" data-entity-2="part2" data-source-line="28" id="msg15"><line style="stroke:#000000;stroke-width:1;" x1="192.9243" x2="234.9243" y1="937.7314" y2="937.7314"/><line style="stroke:#000000;stroke-width:1;" x1="234.9243" x2="234.9243" y1="937.7314" y2="950.7314"/><line style="stroke:#000000;stroke-width:1;" x1="193.9243" x2="234.9243" y1="950.7314" y2="950.7314"/><polygon fill="#000000" points="203.9243,946.7314,193.9243,950.7314,203.9243,954.7314,199.9243,950.7314" style="stroke:#000000;stroke-width:1;stroke-linejoin:miter;stroke-miterlimit:10;"/><text fill="#000000" font-family="Verdana" font-size="13" lengthAdjust="spacing" textLength="148.8652" x="199.9243" y="933.002">decrypt and render list</text></g><rect fill="#FFFFFF" height="3" style="stroke:#FFFFFF;stroke-width:1;" width="879.0024" x="5" y="979.6311"/><line style="stroke:#000000;stroke-width:0.5;" x1="5" x2="884.0024" y1="979.6311" y2="979.6311"/><line style="stroke:#000000;stroke-width:0.5;" x1="5" x2="884.0024" y1="982.6311" y2="982.6311"/><rect fill="#FFFFFF" height="23.7993" style="stroke:#000000;stroke-width:1;" width="120.0122" x="384.4951" y="968.7314"/><text fill="#000000" font-family="Verdana" font-size="13" font-weight="700" lengthAdjust="spacing" textLength="101.5688" x="390.4951" y="985.8013">File download</text><g class="message" data-entity-1="part2" data-entity-2="part2" data-source-line="31" id="msg16"><line style="stroke:#000000;stroke-width:1;" x1="192.9243" x2="234.9243" y1="1040.1294" y2="1040.1294"/><line style="stroke:#000000;stroke-width:1;" x1="234.9243" x2="234.9243" y1="1040.1294" y2="1053.1294"/><line style="stroke:#000000;stroke-width:1;" x1="193.9243" x2="234.9243" y1="1053.1294" y2="1053.1294"/><polygon fill="#000000" points="203.9243,1049.1294,193.9243,1053.1294,203.9243,1057.1294,199.9243,1053.1294" style="stroke:#000000;stroke-width:1;stroke-linejoin:miter;stroke-miterlimit:10;"/><text fill="#000000" font-family="Verdana" font-size="13" lengthAdjust="spacing" textLength="148.002" x="199.9243" y="1019.6006">encode path segments</text><text fill="#000000" font-family="Verdana" font-size="13" lengthAdjust="spacing" textLength="80.4946" x="199.9243" y="1035.3999">sign request</text></g><g class="message" data-entity-1="part2" data-entity-2="part3" data-source-line="32" id="msg17"><polygon fill="#000000" points="516.0649,1094.728,526.0649,1098.728,516.0649,1102.728,520.0649,1098.728" style="stroke:#000000;stroke-width:1;stroke-linejoin:miter;stroke-miterlimit:10;"/><line style="stroke:#000000;stroke-width:1;" x1="192.9243" x2="522.0649" y1="1098.728" y2="1098.728"/><text fill="#000000" font-family="Verdana" font-size="13" lengthAdjust="spacing" textLength="140.0483" x="199.9243" y="1078.1992">GET /api/files/{path}</text><text fill="#000000" font-family="Verdana" font-size="13" lengthAdjust="spacing" textLength="192.8037" x="199.9243" y="1093.9985">X-Device-Id + HMAC headers</text></g><g class="message" data-entity-1="part3" data-entity-2="part3" data-source-line="33" id="msg18"><line style="stroke:#000000;stroke-width:1;" x1="528.0649" x2="570.0649" y1="1144.3267" y2="1144.3267"/><line style="stroke:#000000;stroke-width:1;" x1="570.0649" x2="570.0649" y1="1144.3267" y2="1157.3267"/><line style="stroke:#000000;stroke-width:1;" x1="529.0649" x2="570.0649" y1="1157.3267" y2="1157.3267"/><polygon fill="#000000" points="539.0649,1153.3267,529.0649,1157.3267,539.0649,1161.3267,535.0649,1157.3267" style="stroke:#000000;stroke-width:1;stroke-linejoin:miter;stroke-miterlimit:10;"/><text fill="#000000" font-family="Verdana" font-size="13" lengthAdjust="spacing" textLength="71.1636" x="535.0649" y="1123.7979">auth check</text><text fill="#000000" font-family="Verdana" font-size="13" lengthAdjust="spacing" textLength="181.6255" x="535.0649" y="1139.5972">realpath containment check</text></g><g class="message" data-entity-1="part3" data-entity-2="part5" data-source-line="34" id="msg19"><polygon fill="#000000" points="825.0244,1183.126,835.0244,1187.126,825.0244,1191.126,829.0244,1187.126" style="stroke:#000000;stroke-width:1;stroke-linejoin:miter;stroke-miterlimit:10;"/><line style="stroke:#000000;stroke-width:1;" x1="528.0649" x2="831.0244" y1="1187.126" y2="1187.126"/><text fill="#000000" font-family="Verdana" font-size="13" lengthAdjust="spacing" textLength="196.0791" x="535.0649" y="1182.3965">fs.createReadStream(realFile)</text></g><g class="message" data-entity-1="part3" data-entity-2="part3" data-source-line="35" id="msg20"><line style="stroke:#000000;stroke-width:1;" x1="528.0649" x2="570.0649" y1="1232.7246" y2="1232.7246"/><line style="stroke:#000000;stroke-width:1;" x1="570.0649" x2="570.0649" y1="1232.7246" y2="1245.7246"/><line style="stroke:#000000;stroke-width:1;" x1="529.0649" x2="570.0649" y1="1245.7246" y2="1245.7246"/><polygon fill="#000000" points="539.0649,1241.7246,529.0649,1245.7246,539.0649,1249.7246,535.0649,1245.7246" style="stroke:#000000;stroke-width:1;stroke-linejoin:miter;stroke-miterlimit:10;"/><text fill="#000000" font-family="Verdana" font-size="13" lengthAdjust="spacing" textLength="151.6709" x="535.0649" y="1212.1958">file -&gt; AES-GCM cipher</text><text fill="#000000" font-family="Verdana" font-size="13" lengthAdjust="spacing" textLength="186.4561" x="535.0649" y="1227.9951">append auth tag via pipeline</text></g><g class="message" data-entity-1="part3" data-entity-2="part2" data-source-line="36" id="msg21"><polygon fill="#000000" points="203.9243,1287.3232,193.9243,1291.3232,203.9243,1295.3232,199.9243,1291.3232" style="stroke:#000000;stroke-width:1;stroke-linejoin:miter;stroke-miterlimit:10;"/><line style="stroke:#000000;stroke-width:1;stroke-dasharray:2,2;" x1="197.9243" x2="527.0649" y1="1291.3232" y2="1291.3232"/><text fill="#000000" font-family="Verdana" font-size="13" lengthAdjust="spacing" textLength="115.2607" x="209.9243" y="1270.7944">encrypted stream</text><text fill="#000000" font-family="Verdana" font-size="13" lengthAdjust="spacing" textLength="186.9639" x="209.9243" y="1286.5938">X-Encrypted-IV + tag length</text></g><g class="message" data-entity-1="part2" data-entity-2="part2" data-source-line="37" id="msg22"><line style="stroke:#000000;stroke-width:1;" x1="192.9243" x2="234.9243" y1="1336.9219" y2="1336.9219"/><line style="stroke:#000000;stroke-width:1;" x1="234.9243" x2="234.9243" y1="1336.9219" y2="1349.9219"/><line style="stroke:#000000;stroke-width:1;" x1="193.9243" x2="234.9243" y1="1349.9219" y2="1349.9219"/><polygon fill="#000000" points="203.9243,1345.9219,193.9243,1349.9219,203.9243,1353.9219,199.9243,1349.9219" style="stroke:#000000;stroke-width:1;stroke-linejoin:miter;stroke-miterlimit:10;"/><text fill="#000000" font-family="Verdana" font-size="13" lengthAdjust="spacing" textLength="154.8257" x="199.9243" y="1316.3931">decrypt stream payload</text><text fill="#000000" font-family="Verdana" font-size="13" lengthAdjust="spacing" textLength="129.8477" x="199.9243" y="1332.1924">save Blob download</text></g><?plantuml-src ZLHDRnCn4BtlhnXwIaIsKIjHGQGWjKdQHbKX8e0uvEAi9rbJhsriRy8AyTyPs_bK6-2oyexduyrxutdbIwmGZ6H2PPaNNY8KKjVSDQhWO9YmGYs1AJfRxR7mo87hjPAQyInZXTSMpcwiNZkqKDFd39Y3BtJ83BDU5C8mvVSkXHIe_4oPUYv5qMN6d7ztCMOGRuwZaWsk9-EPekWLMlBkNLwyVNSHO-WYuyopENC8P-7KTPvv92-jeiSq_1udTIMpoBlfEfwphD-7oVZ3hjz-FmijGFv-0mjwC5AUB5Sv5qlXWtUskI8dma4UTwFFG1s9RaZJ5KhuB5paXrbI5vFO_GCs1pbsBdUeq19gcEINRwvWD1ZUmnCs4TnCtJyCRrjHdPpLlcoJvV5wq28yxMU09X-dXuYei5WqCvKqs67e16dreWCSLwB0CK-ejqaY52agGQgjc1Gy_2Vv0YnAfojJaotnIXqM5lqsH-G_z4s3Wa33KfkO8DKwoKy4D5Ee2jiOchb7veZz4uIblWv3ZsZobYbdjFN45SUO4AfjFfehja8OqyrFvCERE0gtGeQMdG-3y491JWKfoEAF6fsFEYGgeXGL-bBpZc6-x7XHaGUhJ4TfLM1dhdbpprpPFZqy2ohkPkfRFemKvMCEho4aXX8PLNR7ykmgm5eeUfap5IiHE7hK3HGb5a_Kf5WgvckI81fswYJ9Uh1cycaeRAlzN97hqJI_6pp2JWi82C5Rn9UvIGo7bM6HQBMHoJsls-rnWbigepaD6B57YYuhihg4VyltFwZh_Wgnl_-VmIZVXYUBJCRIXLQUTc8eVuAoXJkdGQTP_aH9fqG7greXF3JPFguG2Gj_6off4vL8Rvcs7p6K07YsX9LWO8H1ATGBJsClW8lLGeUZhIqVVwKcGnA9QkdBlqcJmedY9kYmUG4tKi_tc_qF?></g></svg>