<svg xmlns="http://www.w3.org/2000/svg" xmlns:xlink="http://www.w3.org/1999/xlink" contentStyleType="text/css" data-diagram-type="DESCRIPTION" height="800px" preserveAspectRatio="none" style="width:1854px;height:800px;background:#FFFFFF;" version="1.1" viewBox="0 0 1854 800" width="1854px" zoomAndPan="magnify"><?plantuml 1.2026.6?><defs/><g><g class="title" data-source-line="4"><text fill="#000000" font-family="Verdana" font-size="22" font-weight="700" lengthAdjust="spacing" textLength="358.6816" x="746.6942" y="37.1182">cloudsyncd runtime topology</text></g><!--cluster Host--><g class="cluster" data-qualified-name="Host" data-source-line="10" id="ent0004"><polygon fill="#FFFFFF" points="626.48,218.4373,636.48,208.4373,1829.07,208.4373,1829.07,682.4373,1819.07,692.4373,626.48,692.4373,626.48,218.4373" style="stroke:#000000;stroke-width:1;stroke-linejoin:miter;stroke-miterlimit:10;"/><line style="stroke:#000000;stroke-width:1;" x1="1819.07" x2="1829.07" y1="218.4373" y2="208.4373"/><line style="stroke:#000000;stroke-width:1;" x1="626.48" x2="1819.07" y1="218.4373" y2="218.4373"/><line style="stroke:#000000;stroke-width:1;" x1="1819.07" x2="1819.07" y1="218.4373" y2="692.4373"/><text fill="#000000" font-family="Verdana" font-size="14" font-weight="700" lengthAdjust="spacing" textLength="107.2354" x="1170.1573" y="235.5125">Host machine</text></g><!--cluster Node--><g class="cluster" data-qualified-name="Host.Node" data-source-line="13" id="ent0006"><polygon fill="#FFFFFF" points="1143.55,295.4373,1153.55,285.4373,1349.46,285.4373,1349.46,512.4373,1339.46,522.4373,1143.55,522.4373,1143.55,295.4373" style="stroke:#000000;stroke-width:1;stroke-linejoin:miter;stroke-miterlimit:10;"/><line style="stroke:#000000;stroke-width:1;" x1="1339.46" x2="1349.46" y1="295.4373" y2="285.4373"/><line style="stroke:#000000;stroke-width:1;" x1="1143.55" x2="1339.46" y1="295.4373" y2="295.4373"/><line style="stroke:#000000;stroke-width:1;" x1="1339.46" x2="1339.46" y1="295.4373" y2="522.4373"/><text fill="#000000" font-family="Verdana" font-size="14" font-weight="700" lengthAdjust="spacing" textLength="105.8408" x="1189.5846" y="312.5125">Node process</text><text fill="#000000" font-family="Verdana" font-size="14" font-weight="700" lengthAdjust="spacing" textLength="68.9199" x="1208.045" y="329.5271">server.js</text></g><!--entity Tunnel--><g class="entity" data-qualified-name="Host.Tunnel" data-source-line="11" id="ent0005"><rect fill="#FFFFFF" height="64.0293" rx="2.5" ry="2.5" style="stroke:#000000;stroke-width:1;" width="180.1572" x="642.48" y="343.4273"/><rect fill="#FFFFFF" height="10" style="stroke:#000000;stroke-width:1;" width="15" x="802.6372" y="348.4273"/><rect fill="#FFFFFF" height="2" style="stroke:#000000;stroke-width:1;" width="4" x="800.6372" y="350.4273"/><rect fill="#FFFFFF" height="2" style="stroke:#000000;stroke-width:1;" width="4" x="800.6372" y="354.4273"/><text fill="#000000" font-family="Verdana" font-size="14" lengthAdjust="spacing" textLength="77.4238" x="657.48" y="377.5025">cloudflared</text><text fill="#000000" font-family="Verdana" font-size="14" lengthAdjust="spacing" textLength="140.1572" x="657.48" y="394.5171">named tunnel: sync</text></g><!--entity PublicDir--><g class="entity" data-qualified-name="Host.PublicDir" data-source-line="18" id="ent0009"><path d="M1695.4,249.9373 L1736.4,249.9373 A3.75,3.75 0 0 1 1738.9,252.4373 L1745.9,270.9373 L1768.0396,270.9373 A2.5,2.5 0 0 1 1770.5396,273.4373 L1770.5396,302.452 A2.5,2.5 0 0 1 1768.0396,304.952 L1695.4,304.952 A2.5,2.5 0 0 1 1692.9,302.452 L1692.9,252.4373 A2.5,2.5 0 0 1 1695.4,249.9373" fill="#FFFFFF" style="stroke:#000000;stroke-width:1;"/><line style="stroke:#000000;stroke-width:1;" x1="1692.9" x2="1745.9" y1="270.9373" y2="270.9373"/><text fill="#000000" font-family="Verdana" font-size="14" lengthAdjust="spacing" textLength="47.6396" x="1702.9" y="292.0125">public/</text></g><!--entity AdminDir--><g class="entity" data-qualified-name="Host.AdminDir" data-source-line="19" id="ent0010"><path d="M1694.31,545.9373 L1735.31,545.9373 A3.75,3.75 0 0 1 1737.81,548.4373 L1744.81,566.9373 L1769.1166,566.9373 A2.5,2.5 0 0 1 1771.6166,569.4373 L1771.6166,598.452 A2.5,2.5 0 0 1 1769.1166,600.952 L1694.31,600.952 A2.5,2.5 0 0 1 1691.81,598.452 L1691.81,548.4373 A2.5,2.5 0 0 1 1694.31,545.9373" fill="#FFFFFF" style="stroke:#000000;stroke-width:1;"/><line style="stroke:#000000;stroke-width:1;" x1="1691.81" x2="1744.81" y1="566.9373" y2="566.9373"/><text fill="#000000" font-family="Verdana" font-size="14" lengthAdjust="spacing" textLength="49.8066" x="1701.81" y="588.0125">admin/</text></g><!--entity SharedDir--><g class="entity" data-qualified-name="Host.SharedDir" data-source-line="20" id="ent0011"><path d="M1692.24,455.9373 L1733.24,455.9373 A3.75,3.75 0 0 1 1735.74,458.4373 L1742.74,476.9373 L1771.1961,476.9373 A2.5,2.5 0 0 1 1773.6961,479.4373 L1773.6961,508.452 A2.5,2.5 0 0 1 1771.1961,510.952 L1692.24,510.952 A2.5,2.5 0 0 1 1689.74,508.452 L1689.74,458.4373 A2.5,2.5 0 0 1 1692.24,455.9373" fill="#FFFFFF" style="stroke:#000000;stroke-width:1;"/><line style="stroke:#000000;stroke-width:1;" x1="1689.74" x2="1742.74" y1="476.9373" y2="476.9373"/><text fill="#000000" font-family="Verdana" font-size="14" lengthAdjust="spacing" textLength="53.9561" x="1699.74" y="498.0125">shared/</text></g><!--entity State--><g class="entity" data-qualified-name="Host.State" data-source-line="21" id="ent0012"><path d="M1650.37,350.4173 C1650.37,340.4173 1731.7201,340.4173 1731.7201,340.4173 C1731.7201,340.4173 1813.0702,340.4173 1813.0702,350.4173 L1813.0702,410.4613 C1813.0702,420.4613 1731.7201,420.4613 1731.7201,420.4613 C1731.7201,420.4613 1650.37,420.4613 1650.37,410.4613 L1650.37,350.4173" fill="#FFFFFF" style="stroke:#000000;stroke-width:1;"/><path d="M1650.37,350.4173 C1650.37,360.4173 1731.7201,360.4173 1731.7201,360.4173 C1731.7201,360.4173 1813.0702,360.4173 1813.0702,350.4173" fill="none" style="stroke:#000000;stroke-width:1;"/><text fill="#000000" font-family="Verdana" font-size="14" lengthAdjust="spacing" textLength="107.0508" x="1660.37" y="378.4925">data/state.json</text><text fill="#000000" font-family="Verdana" font-size="14" lengthAdjust="spacing" textLength="142.7002" x="1660.37" y="395.5071">masterKey, devices,</text><text fill="#000000" font-family="Verdana" font-size="14" lengthAdjust="spacing" textLength="86.0576" x="1660.37" y="412.5218">adminToken</text></g><!--entity TokenFile--><g class="entity" data-qualified-name="Host.TokenFile" data-source-line="22" id="ent0013"><rect fill="#FFFFFF" height="40.0146" rx="2.5" ry="2.5" style="stroke:#000000;stroke-width:1;" width="161.8105" x="1650.81" y="636.4373"/><polygon fill="#FFFFFF" points="1795.6205,641.4373,1795.6205,655.4373,1807.6205,655.4373,1807.6205,647.4373,1801.6205,641.4373,1795.6205,641.4373" style="stroke:#000000;stroke-width:1;stroke-linejoin:miter;stroke-miterlimit:10;"/><line style="stroke:#000000;stroke-width:1;" x1="1801.6205" x2="1801.6205" y1="641.4373" y2="647.4373"/><line style="stroke:#000000;stroke-width:1;" x1="1807.6205" x2="1801.6205" y1="647.4373" y2="647.4373"/><text fill="#000000" font-family="Verdana" font-size="14" lengthAdjust="spacing" textLength="131.8105" x="1660.81" y="663.5125">data/.admin-token</text></g><!--entity ClientApp--><g class="entity" data-qualified-name="Host.Node.ClientApp" data-source-line="14" id="ent0007"><rect fill="#FFFFFF" height="64.0293" rx="2.5" ry="2.5" style="stroke:#000000;stroke-width:1;" width="168.1533" x="1162.43" y="343.4273"/><rect fill="#FFFFFF" height="10" style="stroke:#000000;stroke-width:1;" width="15" x="1310.5833" y="348.4273"/><rect fill="#FFFFFF" height="2" style="stroke:#000000;stroke-width:1;" width="4" x="1308.5833" y="350.4273"/><rect fill="#FFFFFF" height="2" style="stroke:#000000;stroke-width:1;" width="4" x="1308.5833" y="354.4273"/><text fill="#000000" font-family="Verdana" font-size="14" lengthAdjust="spacing" textLength="128.1533" x="1177.43" y="377.5025">client Express app</text><text fill="#000000" font-family="Verdana" font-size="14" lengthAdjust="spacing" textLength="119.54" x="1177.43" y="394.5171">127.0.0.1:21891</text></g><!--entity AdminApp--><g class="entity" data-qualified-name="Host.Node.AdminApp" data-source-line="15" id="ent0008"><rect fill="#FFFFFF" height="64.0293" rx="2.5" ry="2.5" style="stroke:#000000;stroke-width:1;" width="173.9092" x="1159.55" y="442.4273"/><rect fill="#FFFFFF" height="10" style="stroke:#000000;stroke-width:1;" width="15" x="1313.4592" y="447.4273"/><rect fill="#FFFFFF" height="2" style="stroke:#000000;stroke-width:1;" width="4" x="1311.4592" y="449.4273"/><rect fill="#FFFFFF" height="2" style="stroke:#000000;stroke-width:1;" width="4" x="1311.4592" y="453.4273"/><text fill="#000000" font-family="Verdana" font-size="14" lengthAdjust="spacing" textLength="133.9092" x="1174.55" y="476.5025">admin Express app</text><text fill="#000000" font-family="Verdana" font-size="14" lengthAdjust="spacing" textLength="119.54" x="1174.55" y="493.5171">127.0.0.1:21900</text></g><!--entity Browser--><g class="entity" data-qualified-name="Browser" data-source-line="6" id="ent0001"><ellipse cx="60.875" cy="345.4373" fill="#FFFFFF" rx="8" ry="8" style="stroke:#000000;stroke-width:1;"/><path d="M60.875,353.4373 L60.875,380.4373 M47.875,361.4373 L73.875,361.4373 M60.875,380.4373 L47.875,395.4373 M60.875,380.4373 L73.875,395.4373" fill="none" style="stroke:#000000;stroke-width:1;"/><text fill="#000000" font-family="Verdana" font-size="14" lengthAdjust="spacing" textLength="99.75" x="11" y="411.5125">Browser client</text></g><!--entity Operator--><g class="entity" data-qualified-name="Operator" data-source-line="7" id="ent0002"><ellipse cx="732.5633" cy="717.4373" fill="#FFFFFF" rx="8" ry="8" style="stroke:#000000;stroke-width:1;"/><path d="M732.5633,725.4373 L732.5633,752.4373 M719.5633,733.4373 L745.5633,733.4373 M732.5633,752.4373 L719.5633,767.4373 M732.5633,752.4373 L745.5633,767.4373" fill="none" style="stroke:#000000;stroke-width:1;"/><text fill="#000000" font-family="Verdana" font-size="14" lengthAdjust="spacing" textLength="100.6865" x="682.22" y="783.5125">Local operator</text></g><!--entity Edge--><g class="entity" data-qualified-name="Edge" data-source-line="8" id="ent0003"><path d="M299.8289,352.6601 C302.2634,347.5558 307.2241,345.7917 311.0532,351.1662 C313.78,346.1995 317.8612,346.2676 321.411,350.2094 C325.1034,344.1143 330.0522,344.084 333.3385,350.5937 C335.7006,344.6131 338.7338,343.9041 343.2379,348.6094 C345.9925,342.8511 350.9043,342.8411 354.9104,347.1598 C359.3403,341.4725 363.4954,340.68 367.4106,347.6675 C369.4734,342.4732 374.2039,341.1436 378.0655,345.7024 C381.9446,341.1147 387.114,341.3455 389.5717,347.2597 C392.914,342.6315 397.2576,341.0922 400.78,347.0693 C405.0677,341.7413 409.3409,343.631 411.6771,349.0483 C415.7316,342.6659 421.7513,344.0192 424.2231,350.5822 C427.0661,346.559 432.2296,346.0592 434.5016,351.2212 C438.7989,346.1786 442.2712,347.6333 445.3526,352.5464 C449.8257,347.0884 453.996,347.1264 457.5901,353.4587 C465.0444,355.6306 464.7586,359.9791 460.8896,365.3048 C468.3424,366.1562 469.432,370.125 466.426,376.2613 C471.4664,381.3579 469.4507,387.1776 462.4071,388.2097 C466.4977,394.8484 464.269,398.4093 457.2215,400.2516 C454.06,405.1773 449.3616,406.2701 445.9306,400.5371 C443.4589,405.166 438.2562,406.8075 435.1453,401.2114 C431.472,406.9285 427.1845,408.1788 422.7221,402.0381 C419.0532,407.2823 414.3288,407.1617 411.2478,401.4238 C409.3753,406.6123 404.7624,407.2334 401.7785,402.4827 C397.7133,408.305 392.5781,407.3713 389.8923,401.1242 C386.9466,406.9329 382.0601,408.1152 377.924,402.3559 C373.7219,407.0173 369.592,406.8184 365.8421,401.7918 C362.3228,405.4553 359.0141,405.2789 356.3742,400.7727 C352.2645,406.802 347.467,407.2905 343.3147,400.8171 C341.1723,405.3572 336.3782,406.4978 333.306,401.8274 C329.7746,406.2134 324.9339,405.6675 322.4242,400.6456 C318.1198,406.8053 313.7934,405.6626 310.398,399.7408 C307.1402,404.725 301.866,404.7805 298.5416,399.8202 C292.6942,398.0338 291.6726,392.0553 295.8216,387.9737 C290.2629,385.405 289.7679,380.7653 294.3716,376.8696 C289.7086,372.5437 289.597,367.3048 296.6005,365.2089 C291.0186,359.2613 292.289,355.2318 299.8289,352.6601" fill="#FFFFFF" style="stroke:#000000;stroke-width:1;"/><text fill="#000000" font-family="Verdana" font-size="14" lengthAdjust="spacing" textLength="110.7422" x="304.75" y="372.5025">Cloudflare Edge</text><text fill="#000000" font-family="Verdana" font-size="14" lengthAdjust="spacing" textLength="144.7305" x="304.75" y="389.5171">sync.example.com</text></g><g class="entity" data-qualified-name="GMN25" data-source-line="40" id="ent0026"><path d="M1106.64,150.6373 L1106.64,192.2359 L1386.3705,192.2359 L1386.3705,160.6373 L1376.3705,150.6373 L1106.64,150.6373" fill="#FFFFFF" style="stroke:#000000;stroke-width:1;"/><path d="M1376.3705,150.6373 L1376.3705,160.6373 L1386.3705,160.6373 L1376.3705,150.6373" fill="#FFFFFF" style="stroke:#000000;stroke-width:1;"/><text fill="#000000" font-family="Verdana" font-size="13" lengthAdjust="spacing" textLength="213.6812" x="1112.64" y="168.7071">The tunnel forwards only 21891.</text><text fill="#000000" font-family="Verdana" font-size="13" lengthAdjust="spacing" textLength="258.7305" x="1112.64" y="184.5064">/admin and /api/local/* stay local-only.</text></g><g class="entity" data-qualified-name="GMN28" data-source-line="45" id="ent0029"><path d="M1107.5,58.7373 L1107.5,116.1353 L1385.4976,116.1353 L1385.4976,68.7373 L1375.4976,58.7373 L1107.5,58.7373" fill="#FFFFFF" style="stroke:#000000;stroke-width:1;"/><path d="M1375.4976,58.7373 L1375.4976,68.7373 L1385.4976,68.7373 L1375.4976,58.7373" fill="#FFFFFF" style="stroke:#000000;stroke-width:1;"/><text fill="#000000" font-family="Verdana" font-size="13" lengthAdjust="spacing" textLength="228.522" x="1113.5" y="76.8071">Public routes use security headers,</text><text fill="#000000" font-family="Verdana" font-size="13" lengthAdjust="spacing" textLength="256.9976" x="1113.5" y="92.6064">per-request HMAC, timestamp window,</text><text fill="#000000" font-family="Verdana" font-size="13" lengthAdjust="spacing" textLength="187.8779" x="1113.5" y="108.4058">and nonce replay protection.</text></g><!--link Browser to Edge--><g class="link" data-entity-1="ent0001" data-entity-2="ent0003" data-link-type="dependency" data-source-line="25" id="lnk14"><path d="M110.98,375.4373 C158.62,375.4373 226.94,375.4373 284.42,375.4373" fill="none" id="Browser-to-Edge" style="stroke:#000000;stroke-width:1;"/><polygon fill="#000000" points="289.42,375.4373,280.42,371.4373,284.42,375.4373,280.42,379.4373,289.42,375.4373" style="stroke:#000000;stroke-width:1;stroke-linejoin:miter;stroke-miterlimit:10;"/><text fill="#000000" font-family="Verdana" font-size="13" lengthAdjust="spacing" textLength="117.5459" x="141.75" y="372.5071">HTTPS UI and API</text></g><!--link Edge to Tunnel--><g class="link" data-entity-1="ent0003" data-entity-2="ent0005" data-link-type="dependency" data-source-line="26" id="lnk15"><path d="M464.58,375.4373 C518.43,375.4373 582.56,375.4373 636.99,375.4373" fill="none" id="Edge-to-Tunnel" style="stroke:#000000;stroke-width:1;"/><polygon fill="#000000" points="641.99,375.4373,632.99,371.4373,636.99,375.4373,632.99,379.4373,641.99,375.4373" style="stroke:#000000;stroke-width:1;stroke-linejoin:miter;stroke-miterlimit:10;"/><text fill="#000000" font-family="Verdana" font-size="13" lengthAdjust="spacing" textLength="114.6704" x="495.48" y="372.5071">Cloudflare Tunnel</text></g><!--link Tunnel to ClientApp--><g class="link" data-entity-1="ent0005" data-entity-2="ent0007" data-link-type="dependency" data-source-line="27" id="lnk16"><path d="M823.03,375.4373 C918.61,375.4373 1063.92,375.4373 1157.11,375.4373" fill="none" id="Tunnel-to-ClientApp" style="stroke:#000000;stroke-width:1;"/><polygon fill="#000000" points="1162.11,375.4373,1153.11,371.4373,1157.11,375.4373,1153.11,379.4373,1162.11,375.4373" style="stroke:#000000;stroke-width:1;stroke-linejoin:miter;stroke-miterlimit:10;"/><text fill="#000000" font-family="Verdana" font-size="13" lengthAdjust="spacing" textLength="96.021" x="916.9012" y="356.5071">HTTP loopback</text><text fill="#000000" font-family="Verdana" font-size="13" lengthAdjust="spacing" textLength="127.5435" x="901.14" y="372.3064">/api/* and static UI</text></g><!--link ClientApp to PublicDir--><g class="link" data-entity-1="ent0007" data-entity-2="ent0009" data-link-type="dependency" data-source-line="29" id="lnk17"><path d="M1330.85,358.5373 C1436.68,337.0773 1609.9498,301.9311 1687.6598,286.1711" fill="none" id="ClientApp-to-PublicDir" style="stroke:#000000;stroke-width:1;"/><polygon fill="#000000" points="1692.56,285.1773,1682.9445,283.0459,1687.6598,286.1711,1684.5346,290.8863,1692.56,285.1773" style="stroke:#000000;stroke-width:1;stroke-linejoin:miter;stroke-miterlimit:10;"/><text fill="#000000" font-family="Verdana" font-size="13" lengthAdjust="spacing" textLength="189.7251" x="1423.87" y="298.1971">serves index.html and app.js</text></g><!--link ClientApp to SharedDir--><g class="link" data-entity-1="ent0007" data-entity-2="ent0011" data-link-type="dependency" data-source-line="30" id="lnk18"><path d="M1330.79,389.3973 C1358.06,393.9273 1388.5,398.9473 1416.37,403.4373 C1506.97,418.0573 1532.24,409.8173 1620.37,435.4373 C1643.94,442.2973 1664.5928,450.845 1684.9428,460.385" fill="none" id="ClientApp-to-SharedDir" style="stroke:#000000;stroke-width:1;"/><polygon fill="#000000" points="1689.47,462.5073,1683.0189,455.0653,1684.9428,460.385,1679.6231,462.3089,1689.47,462.5073" style="stroke:#000000;stroke-width:1;stroke-linejoin:miter;stroke-miterlimit:10;"/><text fill="#000000" font-family="Verdana" font-size="13" lengthAdjust="spacing" textLength="202.2998" x="1417.37" y="400.5071">list files and stream downloads</text></g><!--link ClientApp to State--><g class="link" data-entity-1="ent0007" data-entity-2="ent0012" data-link-type="dependency" data-source-line="31" id="lnk19"><path d="M1330.81,375.8673 C1406.37,376.3173 1520.85,377.1373 1620.37,378.4373 C1629.95,378.5673 1635.0007,378.632 1644.9607,378.802" fill="none" id="ClientApp-to-State" style="stroke:#000000;stroke-width:1;"/><polygon fill="#000000" points="1649.96,378.8873,1641.0296,374.7343,1644.9607,378.802,1640.893,382.7331,1649.96,378.8873" style="stroke:#000000;stroke-width:1;stroke-linejoin:miter;stroke-miterlimit:10;"/><text fill="#000000" font-family="Verdana" font-size="13" lengthAdjust="spacing" textLength="168.5811" x="1434.37" y="373.5171">masterKey and device list</text></g><!--link Operator to AdminApp--><g class="link" data-entity-1="ent0002" data-entity-2="ent0008" data-link-type="dependency" data-source-line="33" id="lnk20"><path d="M783.16,753.9173 C853.56,760.5973 984.16,763.4973 1076.64,709.4373 C1157.53,662.1573 1208.2008,563.6289 1230.8308,511.1289" fill="none" id="Operator-to-AdminApp" style="stroke:#000000;stroke-width:1;"/><polygon fill="#000000" points="1232.81,506.5373,1225.5742,513.2188,1230.8308,511.1289,1232.9207,516.3855,1232.81,506.5373" style="stroke:#000000;stroke-width:1;stroke-linejoin:miter;stroke-miterlimit:10;"/><text fill="#000000" font-family="Verdana" font-size="13" lengthAdjust="spacing" textLength="222.4409" x="853.64" y="706.5071">local browser or SSH port forward</text></g><!--link AdminApp to AdminDir--><g class="link" data-entity-1="ent0008" data-entity-2="ent0010" data-link-type="dependency" data-source-line="34" id="lnk21"><path d="M1310.4,506.9073 C1341.48,521.4673 1380.03,537.3773 1416.37,546.4373 C1513.1,570.5573 1626.17,574.0281 1686.35,574.0181" fill="none" id="AdminApp-to-AdminDir" style="stroke:#000000;stroke-width:1;"/><polygon fill="#000000" points="1691.35,574.0173,1682.35,570.0173,1686.35,574.0173,1682.35,578.0173,1691.35,574.0173" style="stroke:#000000;stroke-width:1;stroke-linejoin:miter;stroke-miterlimit:10;"/><text fill="#000000" font-family="Verdana" font-size="13" lengthAdjust="spacing" textLength="106.7485" x="1465.37" y="543.5071">serves admin UI</text></g><!--link AdminApp to State--><g class="link" data-entity-1="ent0008" data-entity-2="ent0012" data-link-type="dependency" data-source-line="35" id="lnk22"><path d="M1333.63,483.3973 C1410.84,488.3973 1526.12,488.2673 1620.37,456.4373 C1626.9,454.2373 1646.9506,440.6784 1670.9806,423.6484" fill="none" id="AdminApp-to-State" style="stroke:#000000;stroke-width:1;"/><polygon fill="#000000" points="1675.06,420.7573,1665.4042,422.6977,1670.9806,423.6484,1670.0299,429.2248,1675.06,420.7573" style="stroke:#000000;stroke-width:1;stroke-linejoin:miter;stroke-miterlimit:10;"/><text fill="#000000" font-family="Verdana" font-size="13" lengthAdjust="spacing" textLength="186.4751" x="1425.37" y="453.5071">device/key/token operations</text></g><!--link AdminApp to SharedDir--><g class="link" data-entity-1="ent0008" data-entity-2="ent0011" data-link-type="dependency" data-source-line="36" id="lnk23"><path d="M1333.62,498.2973 C1359.96,504.5173 1389.16,510.3373 1416.37,513.4373 C1506.45,523.7073 1530.5,525.4373 1620.37,513.4373 C1643.59,510.3373 1664.0671,505.1846 1684.5471,498.9446" fill="none" id="AdminApp-to-SharedDir" style="stroke:#000000;stroke-width:1;"/><polygon fill="#000000" points="1689.33,497.4873,1679.5549,496.2841,1684.5471,498.9446,1681.8866,503.9368,1689.33,497.4873" style="stroke:#000000;stroke-width:1;stroke-linejoin:miter;stroke-miterlimit:10;"/><text fill="#000000" font-family="Verdana" font-size="13" lengthAdjust="spacing" textLength="136.043" x="1450.37" y="510.5071">status and file listing</text></g><!--link AdminApp to TokenFile--><g class="link" data-entity-1="ent0008" data-entity-2="ent0013" data-link-type="dependency" data-source-line="37" id="lnk24"><path d="M1282.14,506.9173 C1314.4,535.2873 1365.09,575.2973 1416.37,597.4373 C1491.82,630.0073 1580.115,644.1381 1645.395,650.6881" fill="none" id="AdminApp-to-TokenFile" style="stroke:#000000;stroke-width:1;"/><polygon fill="#000000" points="1650.37,651.1873,1641.8143,646.3088,1645.395,650.6881,1641.0156,654.2688,1650.37,651.1873" style="stroke:#000000;stroke-width:1;stroke-linejoin:miter;stroke-miterlimit:10;"/><text fill="#000000" font-family="Verdana" font-size="13" lengthAdjust="spacing" textLength="105.8789" x="1465.87" y="594.5071">local token copy</text></g><!--link AdminApp to GMN25--><g class="link" data-entity-1="ent0008" data-entity-2="ent0026" data-link-type="association" data-source-line="40" id="lnk27"><path d="M1159.34,480.0173 C1094.59,478.8973 1009.96,465.1973 964.64,407.9373 C890.1,313.7773 1077.05,230.3673 1181.63,192.7073" fill="none" id="AdminApp-GMN25" style="stroke:#000000;stroke-width:1;stroke-dasharray:7,7;"/></g><!--link ClientApp to GMN28--><g class="link" data-entity-1="ent0007" data-entity-2="ent0029" data-link-type="association" data-source-line="45" id="lnk30"><path d="M1162.33,349.0473 C1056.24,311.4273 895.57,237.2973 964.64,150.9373 C998.55,108.5373 1054.18,90.6373 1107.1,84.1073" fill="none" id="ClientApp-GMN28" style="stroke:#000000;stroke-width:1;stroke-dasharray:7,7;"/></g><?plantuml-src TLHDRzim3BthLt0v3edJzBArXm5Pro75lWeak-MYM4oYrHOrIMvg3FllesZ7JLeC0HB7V8zFV2Jr9ksnHl2LjavLk4sG28BTxHCO6x1CbfnIoQOAeQoeCR5rfO7Gk6IPbyXJHRjMALqc2Z3w6EWGCJ3MeaiZq17wLqV4Lofr1UGnQFulY1_z7oKACBh9FzjA1uHRiyErowA5eMPJOMrBB5XMY3cgb2E3C5fGJ53hScyTIb1U_5409TMU71y7HkMGsQoTqpKQI8rpM5r3rX3UIbue9dQ9l-Tl7wZ46Fae61un5B-YO2MMDLwevEBXzia7ve3sVkrcb--A2_xChYzdxwzcmhuHtDpxbmcqgQtxF__guaBuymphw7_pURTK6VP-vDaeMqu5So_FdsmuYKlwwNEAysZSPtkwy5AUkxZHIMzqP4VoqpGcdP1z8BTsjOu9mnTins3maJiKnsidAYjwGDUbodXEeqEoMvw5FaqXi4aQSCBuR2jKNDDnd2QJ3z9ik8R5QdM_X9zte9s1-VsTalSPq3ME8IVpqpUp3sNKO7gV2oeYlz7bmzfDjRVJjv8uLsTBbb7gcP3fWvzCbrc8O9t1fsAVwaget2wsvGLjC99fbUN1t7A5iPSAg6imT70LQVEAcNrZrk2na3gR9PLIn_qH_74eif2isgRtaEFBvG8y1LQdSD31g04yCCygw-QGJJZ37K_KdM7wWErKsjSlDTyOyGNXfFXiRDCLdYsG2gpRdHE66HYAw0HAyctUTvRVK4fK0srFjs2rntwVZnL685Ur83jNC6BQbPJbfTkIdNlEnsexgKac50ePaOLUoPqkRJSC4AX9x5R3kn6nR89DBUnHypR5CQFObKd0tmrosnVVvZTZo7SdAzOU3ZmyTCWeBOAEcngGh-CsNpcfku1FJlCF?></g></svg>