<svg xmlns="http://www.w3.org/2000/svg" xmlns:xlink="http://www.w3.org/1999/xlink" contentStyleType="text/css" data-diagram-type="DESCRIPTION" height="995px" preserveAspectRatio="none" style="width:2005px;height:995px;background:#FFFFFF;" version="1.1" viewBox="0 0 2005 995" width="2005px" zoomAndPan="magnify"><?plantuml 1.2026.6?><defs/><g><g class="title" data-source-line="4"><text fill="#000000" font-family="Verdana" font-size="22" font-weight="700" lengthAdjust="spacing" textLength="358.6816" x="822.4186" y="37.1182">cloudsyncd runtime topology</text></g><!--cluster Host--><g class="cluster" data-qualified-name="Host" data-source-line="10" id="ent0004"><polygon fill="#FFFFFF" points="624.33,265.4373,634.33,255.4373,1951.29,255.4373,1951.29,877.4373,1941.29,887.4373,624.33,887.4373,624.33,265.4373" style="stroke:#000000;stroke-width:1;stroke-linejoin:miter;stroke-miterlimit:10;"/><line style="stroke:#000000;stroke-width:1;" x1="1941.29" x2="1951.29" y1="265.4373" y2="255.4373"/><line style="stroke:#000000;stroke-width:1;" x1="624.33" x2="1941.29" y1="265.4373" y2="265.4373"/><line style="stroke:#000000;stroke-width:1;" x1="1941.29" x2="1941.29" y1="265.4373" y2="887.4373"/><text fill="#000000" font-family="Verdana" font-size="14" font-weight="700" lengthAdjust="spacing" textLength="107.2354" x="1230.1923" y="282.5125">Host machine</text></g><!--cluster Node--><g class="cluster" data-qualified-name="Host.Node" data-source-line="13" id="ent0006"><polygon fill="#FFFFFF" points="1150.52,440.4373,1160.52,430.4373,1356.43,430.4373,1356.43,675.4373,1346.43,685.4373,1150.52,685.4373,1150.52,440.4373" style="stroke:#000000;stroke-width:1;stroke-linejoin:miter;stroke-miterlimit:10;"/><line style="stroke:#000000;stroke-width:1;" x1="1346.43" x2="1356.43" y1="440.4373" y2="430.4373"/><line style="stroke:#000000;stroke-width:1;" x1="1150.52" x2="1346.43" y1="440.4373" y2="440.4373"/><line style="stroke:#000000;stroke-width:1;" x1="1346.43" x2="1346.43" y1="440.4373" y2="685.4373"/><text fill="#000000" font-family="Verdana" font-size="14" font-weight="700" lengthAdjust="spacing" textLength="105.8408" x="1196.5546" y="457.5125">Node process</text><text fill="#000000" font-family="Verdana" font-size="14" font-weight="700" lengthAdjust="spacing" textLength="68.9199" x="1215.015" y="474.5271">server.js</text></g><!--entity Tunnel--><g class="entity" data-qualified-name="Host.Tunnel" data-source-line="11" id="ent0005"><rect fill="#FFFFFF" height="64.0293" rx="2.5" ry="2.5" style="stroke:#000000;stroke-width:1;" width="180.1572" x="640.33" y="497.4273"/><rect fill="#FFFFFF" height="10" style="stroke:#000000;stroke-width:1;" width="15" x="800.4872" y="502.4273"/><rect fill="#FFFFFF" height="2" style="stroke:#000000;stroke-width:1;" width="4" x="798.4872" y="504.4273"/><rect fill="#FFFFFF" height="2" style="stroke:#000000;stroke-width:1;" width="4" x="798.4872" y="508.4273"/><text fill="#000000" font-family="Verdana" font-size="14" lengthAdjust="spacing" textLength="77.4238" x="655.33" y="531.5025">cloudflared</text><text fill="#000000" font-family="Verdana" font-size="14" lengthAdjust="spacing" textLength="140.1572" x="655.33" y="548.5171">named tunnel: sync</text></g><!--entity PublicDir--><g class="entity" data-qualified-name="Host.PublicDir" data-source-line="18" id="ent0009"><path d="M1760.54,296.4273 L1801.54,296.4273 A3.75,3.75 0 0 1 1804.04,298.9273 L1811.04,317.4273 L1896.4326,317.4273 A2.5,2.5 0 0 1 1898.9326,319.9273 L1898.9326,365.9566 A2.5,2.5 0 0 1 1896.4326,368.4566 L1760.54,368.4566 A2.5,2.5 0 0 1 1758.04,365.9566 L1758.04,298.9273 A2.5,2.5 0 0 1 1760.54,296.4273" fill="#FFFFFF" style="stroke:#000000;stroke-width:1;"/><line style="stroke:#000000;stroke-width:1;" x1="1758.04" x2="1811.04" y1="317.4273" y2="317.4273"/><text fill="#000000" font-family="Verdana" font-size="14" lengthAdjust="spacing" textLength="47.6396" x="1768.04" y="338.5025">public/</text><text fill="#000000" font-family="Verdana" font-size="14" lengthAdjust="spacing" textLength="110.8926" x="1768.04" y="355.5171">receiver web UI</text></g><!--entity AdminDir--><g class="entity" data-qualified-name="Host.AdminDir" data-source-line="19" id="ent0010"><path d="M1765.33,799.4273 L1806.33,799.4273 A3.75,3.75 0 0 1 1808.83,801.9273 L1815.83,820.4273 L1891.6454,820.4273 A2.5,2.5 0 0 1 1894.1454,822.9273 L1894.1454,868.9566 A2.5,2.5 0 0 1 1891.6454,871.4566 L1765.33,871.4566 A2.5,2.5 0 0 1 1762.83,868.9566 L1762.83,801.9273 A2.5,2.5 0 0 1 1765.33,799.4273" fill="#FFFFFF" style="stroke:#000000;stroke-width:1;"/><line style="stroke:#000000;stroke-width:1;" x1="1762.83" x2="1815.83" y1="820.4273" y2="820.4273"/><text fill="#000000" font-family="Verdana" font-size="14" lengthAdjust="spacing" textLength="49.8066" x="1772.83" y="841.5025">admin/</text><text fill="#000000" font-family="Verdana" font-size="14" lengthAdjust="spacing" textLength="101.3154" x="1772.83" y="858.5171">local admin UI</text></g><!--entity SharedDir--><g class="entity" data-qualified-name="Host.SharedDir" data-source-line="20" id="ent0011"><path d="M1789.01,633.9373 L1830.01,633.9373 A3.75,3.75 0 0 1 1832.51,636.4373 L1839.51,654.9373 L1867.9661,654.9373 A2.5,2.5 0 0 1 1870.4661,657.4373 L1870.4661,686.452 A2.5,2.5 0 0 1 1867.9661,688.952 L1789.01,688.952 A2.5,2.5 0 0 1 1786.51,686.452 L1786.51,636.4373 A2.5,2.5 0 0 1 1789.01,633.9373" fill="#FFFFFF" style="stroke:#000000;stroke-width:1;"/><line style="stroke:#000000;stroke-width:1;" x1="1786.51" x2="1839.51" y1="654.9373" y2="654.9373"/><text fill="#000000" font-family="Verdana" font-size="14" lengthAdjust="spacing" textLength="53.9561" x="1796.51" y="676.0125">shared/</text></g><!--entity State--><g class="entity" data-qualified-name="Host.State" data-source-line="21" id="ent0012"><path d="M1747.14,528.4173 C1747.14,518.4173 1828.4901,518.4173 1828.4901,518.4173 C1828.4901,518.4173 1909.8402,518.4173 1909.8402,528.4173 L1909.8402,588.4613 C1909.8402,598.4613 1828.4901,598.4613 1828.4901,598.4613 C1828.4901,598.4613 1747.14,598.4613 1747.14,588.4613 L1747.14,528.4173" fill="#FFFFFF" style="stroke:#000000;stroke-width:1;"/><path d="M1747.14,528.4173 C1747.14,538.4173 1828.4901,538.4173 1828.4901,538.4173 C1828.4901,538.4173 1909.8402,538.4173 1909.8402,528.4173" fill="none" style="stroke:#000000;stroke-width:1;"/><text fill="#000000" font-family="Verdana" font-size="14" lengthAdjust="spacing" textLength="107.0508" x="1757.14" y="556.4925">data/state.json</text><text fill="#000000" font-family="Verdana" font-size="14" lengthAdjust="spacing" textLength="142.7002" x="1757.14" y="573.5071">masterKey, devices,</text><text fill="#000000" font-family="Verdana" font-size="14" lengthAdjust="spacing" textLength="86.0576" x="1757.14" y="590.5218">adminToken</text></g><!--entity TokenFile--><g class="entity" data-qualified-name="Host.TokenFile" data-source-line="22" id="ent0013"><rect fill="#FFFFFF" height="40.0146" rx="2.5" ry="2.5" style="stroke:#000000;stroke-width:1;" width="161.8105" x="1747.58" y="724.4373"/><polygon fill="#FFFFFF" points="1892.3905,729.4373,1892.3905,743.4373,1904.3905,743.4373,1904.3905,735.4373,1898.3905,729.4373,1892.3905,729.4373" style="stroke:#000000;stroke-width:1;stroke-linejoin:miter;stroke-miterlimit:10;"/><line style="stroke:#000000;stroke-width:1;" x1="1898.3905" x2="1898.3905" y1="729.4373" y2="735.4373"/><line style="stroke:#000000;stroke-width:1;" x1="1904.3905" x2="1898.3905" y1="735.4373" y2="735.4373"/><text fill="#000000" font-family="Verdana" font-size="14" lengthAdjust="spacing" textLength="131.8105" x="1757.58" y="751.5125">data/.admin-token</text></g><!--entity DownloadHistory--><g class="entity" data-qualified-name="Host.DownloadHistory" data-source-line="23" id="ent0014"><path d="M1721.68,413.4173 C1721.68,403.4173 1828.4837,403.4173 1828.4837,403.4173 C1828.4837,403.4173 1935.2874,403.4173 1935.2874,413.4173 L1935.2874,473.4613 C1935.2874,483.4613 1828.4837,483.4613 1828.4837,483.4613 C1828.4837,483.4613 1721.68,483.4613 1721.68,473.4613 L1721.68,413.4173" fill="#FFFFFF" style="stroke:#000000;stroke-width:1;"/><path d="M1721.68,413.4173 C1721.68,423.4173 1828.4837,423.4173 1828.4837,423.4173 C1828.4837,423.4173 1935.2874,423.4173 1935.2874,413.4173" fill="none" style="stroke:#000000;stroke-width:1;"/><text fill="#000000" font-family="Verdana" font-size="14" lengthAdjust="spacing" textLength="193.6074" x="1731.68" y="441.4925">data/download-history.json</text><text fill="#000000" font-family="Verdana" font-size="14" lengthAdjust="spacing" textLength="182.793" x="1731.68" y="458.5071">latest 500 transfer results</text><text fill="#000000" font-family="Verdana" font-size="14" lengthAdjust="spacing" textLength="79.7002" x="1731.68" y="475.5218">mode 0600</text></g><!--entity ClientApp--><g class="entity" data-qualified-name="Host.Node.ClientApp" data-source-line="14" id="ent0007"><rect fill="#FFFFFF" height="81.0439" rx="2.5" ry="2.5" style="stroke:#000000;stroke-width:1;" width="168.1533" x="1169.4" y="488.9173"/><rect fill="#FFFFFF" height="10" style="stroke:#000000;stroke-width:1;" width="15" x="1317.5533" y="493.9173"/><rect fill="#FFFFFF" height="2" style="stroke:#000000;stroke-width:1;" width="4" x="1315.5533" y="495.9173"/><rect fill="#FFFFFF" height="2" style="stroke:#000000;stroke-width:1;" width="4" x="1315.5533" y="499.9173"/><text fill="#000000" font-family="Verdana" font-size="14" lengthAdjust="spacing" textLength="128.1533" x="1184.4" y="522.9925">client Express app</text><text fill="#000000" font-family="Verdana" font-size="14" lengthAdjust="spacing" textLength="119.54" x="1184.4" y="540.0071">127.0.0.1:21891</text><text fill="#000000" font-family="Verdana" font-size="14" lengthAdjust="spacing" textLength="121.3105" x="1184.4" y="557.0218">must be listening</text></g><!--entity AdminApp--><g class="entity" data-qualified-name="Host.Node.AdminApp" data-source-line="15" id="ent0008"><rect fill="#FFFFFF" height="64.0293" rx="2.5" ry="2.5" style="stroke:#000000;stroke-width:1;" width="173.9092" x="1166.52" y="605.4273"/><rect fill="#FFFFFF" height="10" style="stroke:#000000;stroke-width:1;" width="15" x="1320.4292" y="610.4273"/><rect fill="#FFFFFF" height="2" style="stroke:#000000;stroke-width:1;" width="4" x="1318.4292" y="612.4273"/><rect fill="#FFFFFF" height="2" style="stroke:#000000;stroke-width:1;" width="4" x="1318.4292" y="616.4273"/><text fill="#000000" font-family="Verdana" font-size="14" lengthAdjust="spacing" textLength="133.9092" x="1181.52" y="639.5025">admin Express app</text><text fill="#000000" font-family="Verdana" font-size="14" lengthAdjust="spacing" textLength="119.54" x="1181.52" y="656.5171">127.0.0.1:21900</text></g><!--entity Browser--><g class="entity" data-qualified-name="Browser" data-source-line="6" id="ent0001"><ellipse cx="60.875" cy="499.4373" fill="#FFFFFF" rx="8" ry="8" style="stroke:#000000;stroke-width:1;"/><path d="M60.875,507.4373 L60.875,534.4373 M47.875,515.4373 L73.875,515.4373 M60.875,534.4373 L47.875,549.4373 M60.875,534.4373 L73.875,549.4373" fill="none" style="stroke:#000000;stroke-width:1;"/><text fill="#000000" font-family="Verdana" font-size="14" lengthAdjust="spacing" textLength="99.75" x="11" y="565.5125">Browser client</text></g><!--entity Operator--><g class="entity" data-qualified-name="Operator" data-source-line="7" id="ent0002"><ellipse cx="730.4133" cy="912.4373" fill="#FFFFFF" rx="8" ry="8" style="stroke:#000000;stroke-width:1;"/><path d="M730.4133,920.4373 L730.4133,947.4373 M717.4133,928.4373 L743.4133,928.4373 M730.4133,947.4373 L717.4133,962.4373 M730.4133,947.4373 L743.4133,962.4373" fill="none" style="stroke:#000000;stroke-width:1;"/><text fill="#000000" font-family="Verdana" font-size="14" lengthAdjust="spacing" textLength="100.6865" x="680.07" y="978.5125">Local operator</text></g><!--entity Edge--><g class="entity" data-qualified-name="Edge" data-source-line="8" id="ent0003"><path d="M298.3749,506.9694 C301.213,501.0934 305.0794,500.6075 309.9419,504.5954 C313.276,498.4886 318.4907,498.6812 321.8651,504.5553 C324.4727,498.7445 328.2601,497.9723 332.6806,502.6936 C335.5883,498.5242 340.1404,497.6675 342.6063,503.1481 C345.1953,496.4148 351.1267,495.5617 355.1057,501.8097 C357.4492,495.0655 361.9386,494.6594 366.4169,499.7734 C369.5341,495.3682 373.1789,495.588 376.1389,499.9478 C380.3392,494.6627 385.3936,494.6917 388.4842,501.1176 C391.6714,496.2041 396.4694,496.4961 398.7993,501.969 C402.6359,495.6646 407.7237,496.721 411.5431,501.9879 C415.2965,497.8517 420.0527,498.6761 421.6125,504.2603 C425.2261,497.692 431.1944,498.4152 433.9955,505.0237 C437.481,499.957 441.7848,501.3673 443.9984,506.2966 C447.6187,501.1125 453.3152,502.1124 456.0807,507.2931 C462.4118,510.1559 462.5464,515.8811 456.7163,519.3832 C461.1507,522.6977 461.3909,527.401 456.3706,530.4193 C461.6537,533.3854 461.7237,538.6676 456.5032,541.7566 C462.3919,546.4896 461.1216,551.4361 454.4513,554.0776 C451.6616,559.3443 447.8478,561.0223 443.354,555.8975 C439.5421,561.0303 435.6276,559.5176 432.6865,554.9409 C429.8373,559.3774 425.0169,560.2907 422.3586,554.7433 C420.133,559.8023 416.0031,561.7982 411.7394,556.9218 C408.074,562.379 402.7722,562.0456 400.3724,555.7026 C397.4182,562.8552 392.0462,562.717 387.2588,557.6737 C383.7735,562.2638 380.1604,563.198 376.5383,557.8208 C372.1195,562.9786 368.0771,561.9429 365.561,555.948 C362.6633,560.3939 358.2007,560.6257 355.2385,556.0216 C351.7727,560.9373 346.8268,560.9225 344.1146,555.2314 C341.4165,561.1531 337.0697,561.0775 333.2147,556.4238 C328.7661,562.5774 324.7381,562.7533 320.6128,556.1055 C316.0081,561.6779 312.1667,561.2211 308.9712,554.744 C306.4183,559.232 301.9922,560.5833 298.9634,555.2278 C292.2181,552.6695 291.3111,547.2736 296.8716,542.6661 C290.5744,539.8706 288.1808,535.0847 294.2341,529.7644 C290.9586,525.1853 290.651,521.0753 297.1905,519.258 C291.3836,514.8108 291.3381,510.1786 298.3749,506.9694" fill="#FFFFFF" style="stroke:#000000;stroke-width:1;"/><text fill="#000000" font-family="Verdana" font-size="14" lengthAdjust="spacing" textLength="110.7422" x="304.75" y="526.5025">Cloudflare Edge</text><text fill="#000000" font-family="Verdana" font-size="14" lengthAdjust="spacing" textLength="142.584" x="304.75" y="543.5171">your sync hostname</text></g><g class="entity" data-qualified-name="GMN28" data-source-line="43" id="ent0029"><path d="M1104.49,150.9373 L1104.49,239.9339 L1402.4509,239.9339 L1402.4509,160.9373 L1392.4509,150.9373 L1104.49,150.9373" fill="#FFFFFF" style="stroke:#000000;stroke-width:1;"/><path d="M1392.4509,150.9373 L1392.4509,160.9373 L1402.4509,160.9373 L1392.4509,150.9373" fill="#FFFFFF" style="stroke:#000000;stroke-width:1;"/><text fill="#000000" font-family="Verdana" font-size="13" lengthAdjust="spacing" textLength="213.6812" x="1110.49" y="169.0071">The tunnel forwards only 21891.</text><text fill="#000000" font-family="Verdana" font-size="13" lengthAdjust="spacing" textLength="258.7305" x="1110.49" y="184.8064">/admin and /api/local/* stay local-only.</text><text fill="#000000" font-family="Verdana" font-size="13" lengthAdjust="spacing" textLength="195.6221" x="1110.49" y="200.6058">Views: overview, shared files,</text><text fill="#000000" font-family="Verdana" font-size="13" lengthAdjust="spacing" textLength="145.0439" x="1110.49" y="216.4051">and download history.</text><text fill="#000000" font-family="Verdana" font-size="13" lengthAdjust="spacing" textLength="276.9609" x="1110.49" y="232.2044">Both listeners stop with the Node process.</text></g><g class="entity" data-qualified-name="GMN31" data-source-line="51" id="ent0032"><path d="M1666.45,197.6373 L1666.45,239.2359 L1990.5188,239.2359 L1990.5188,207.6373 L1980.5188,197.6373 L1666.45,197.6373" fill="#FFFFFF" style="stroke:#000000;stroke-width:1;"/><path d="M1980.5188,197.6373 L1980.5188,207.6373 L1990.5188,207.6373 L1980.5188,197.6373" fill="#FFFFFF" style="stroke:#000000;stroke-width:1;"/><text fill="#000000" font-family="Verdana" font-size="13" lengthAdjust="spacing" textLength="303.0688" x="1672.45" y="215.7071">"completed" means the server pipeline ended.</text><text fill="#000000" font-family="Verdana" font-size="13" lengthAdjust="spacing" textLength="292.9189" x="1672.45" y="231.5064">It is not an end-to-end decrypt/save receipt.</text></g><g class="entity" data-qualified-name="GMN34" data-source-line="56" id="ent0035"><path d="M1114.47,58.7373 L1114.47,116.1353 L1392.4676,116.1353 L1392.4676,68.7373 L1382.4676,58.7373 L1114.47,58.7373" fill="#FFFFFF" style="stroke:#000000;stroke-width:1;"/><path d="M1382.4676,58.7373 L1382.4676,68.7373 L1392.4676,68.7373 L1382.4676,58.7373" fill="#FFFFFF" style="stroke:#000000;stroke-width:1;"/><text fill="#000000" font-family="Verdana" font-size="13" lengthAdjust="spacing" textLength="228.522" x="1120.47" y="76.8071">Public routes use security headers,</text><text fill="#000000" font-family="Verdana" font-size="13" lengthAdjust="spacing" textLength="256.9976" x="1120.47" y="92.6064">per-request HMAC, timestamp window,</text><text fill="#000000" font-family="Verdana" font-size="13" lengthAdjust="spacing" textLength="187.8779" x="1120.47" y="108.4058">and nonce replay protection.</text></g><!--link Browser to Edge--><g class="link" data-entity-1="ent0001" data-entity-2="ent0003" data-link-type="dependency" data-source-line="26" id="lnk15"><path d="M111.15,529.4373 C158.87,529.4373 227.19,529.4373 284.45,529.4373" fill="none" id="Browser-to-Edge" style="stroke:#000000;stroke-width:1;"/><polygon fill="#000000" points="289.45,529.4373,280.45,525.4373,284.45,529.4373,280.45,533.4373,289.45,529.4373" style="stroke:#000000;stroke-width:1;stroke-linejoin:miter;stroke-miterlimit:10;"/><text fill="#000000" font-family="Verdana" font-size="13" lengthAdjust="spacing" textLength="117.5459" x="141.75" y="526.5071">HTTPS UI and API</text></g><!--link Edge to Tunnel--><g class="link" data-entity-1="ent0003" data-entity-2="ent0005" data-link-type="dependency" data-source-line="27" id="lnk16"><path d="M462.79,529.4373 C516.47,529.4373 580.52,529.4373 634.89,529.4373" fill="none" id="Edge-to-Tunnel" style="stroke:#000000;stroke-width:1;"/><polygon fill="#000000" points="639.89,529.4373,630.89,525.4373,634.89,529.4373,630.89,533.4373,639.89,529.4373" style="stroke:#000000;stroke-width:1;stroke-linejoin:miter;stroke-miterlimit:10;"/><text fill="#000000" font-family="Verdana" font-size="13" lengthAdjust="spacing" textLength="114.6704" x="493.33" y="526.5071">Cloudflare Tunnel</text></g><!--link Tunnel to ClientApp--><g class="link" data-entity-1="ent0005" data-entity-2="ent0007" data-link-type="dependency" data-source-line="28" id="lnk17"><path d="M820.99,529.4373 C918.75,529.4373 1069.03,529.4373 1164.22,529.4373" fill="none" id="Tunnel-to-ClientApp" style="stroke:#000000;stroke-width:1;"/><polygon fill="#000000" points="1169.22,529.4373,1160.22,525.4373,1164.22,529.4373,1160.22,533.4373,1169.22,529.4373" style="stroke:#000000;stroke-width:1;stroke-linejoin:miter;stroke-miterlimit:10;"/><text fill="#000000" font-family="Verdana" font-size="13" lengthAdjust="spacing" textLength="96.021" x="914.7512" y="510.5071">HTTP loopback</text><text fill="#000000" font-family="Verdana" font-size="13" lengthAdjust="spacing" textLength="127.5435" x="898.99" y="526.3064">/api/* and static UI</text></g><!--link ClientApp to PublicDir--><g class="link" data-entity-1="ent0007" data-entity-2="ent0009" data-link-type="dependency" data-source-line="30" id="lnk18"><path d="M1289.07,488.5073 C1321.97,452.6573 1374.88,402.4673 1432.45,377.4373 C1538.96,331.1373 1671.1017,326.1285 1752.6017,328.2285" fill="none" id="ClientApp-to-PublicDir" style="stroke:#000000;stroke-width:1;"/><polygon fill="#000000" points="1757.6,328.3573,1748.706,324.1268,1752.6017,328.2285,1748.5,332.1242,1757.6,328.3573" style="stroke:#000000;stroke-width:1;stroke-linejoin:miter;stroke-miterlimit:10;"/><text fill="#000000" font-family="Verdana" font-size="13" lengthAdjust="spacing" textLength="189.7251" x="1439.95" y="329.0771">serves index.html and app.js</text></g><!--link ClientApp to SharedDir--><g class="link" data-entity-1="ent0007" data-entity-2="ent0011" data-link-type="dependency" data-source-line="31" id="lnk19"><path d="M1337.68,550.4373 C1367.53,557.8573 1401.47,566.1573 1432.45,573.4373 C1561.22,603.6973 1709.3325,635.9825 1781.2925,651.5125" fill="none" id="ClientApp-to-SharedDir" style="stroke:#000000;stroke-width:1;"/><polygon fill="#000000" points="1786.18,652.5673,1778.2264,646.7587,1781.2925,651.5125,1776.5387,654.5787,1786.18,652.5673" style="stroke:#000000;stroke-width:1;stroke-linejoin:miter;stroke-miterlimit:10;"/><text fill="#000000" font-family="Verdana" font-size="13" lengthAdjust="spacing" textLength="202.2998" x="1433.45" y="570.5071">list files and stream downloads</text></g><!--link ClientApp to State--><g class="link" data-entity-1="ent0007" data-entity-2="ent0012" data-link-type="dependency" data-source-line="32" id="lnk20"><path d="M1337.79,533.6573 C1447.36,539.1973 1633.6264,548.6244 1741.8464,554.1044" fill="none" id="ClientApp-to-State" style="stroke:#000000;stroke-width:1;"/><polygon fill="#000000" points="1746.84,554.3573,1738.0538,549.9073,1741.8464,554.1044,1737.6492,557.897,1746.84,554.3573" style="stroke:#000000;stroke-width:1;stroke-linejoin:miter;stroke-miterlimit:10;"/><text fill="#000000" font-family="Verdana" font-size="13" lengthAdjust="spacing" textLength="168.5811" x="1450.45" y="535.8871">masterKey and device list</text></g><!--link ClientApp to DownloadHistory--><g class="link" data-entity-1="ent0007" data-entity-2="ent0014" data-link-type="dependency" data-source-line="33" id="lnk21"><path d="M1314.09,488.5473 C1347.32,468.2473 1390.39,445.8673 1432.45,435.4373 C1528.16,411.7173 1635.9732,416.5817 1716.4832,425.9117" fill="none" id="ClientApp-to-DownloadHistory" style="stroke:#000000;stroke-width:1;"/><polygon fill="#000000" points="1721.45,426.4873,1712.9703,421.4779,1716.4832,425.9117,1712.0494,429.4247,1721.45,426.4873" style="stroke:#000000;stroke-width:1;stroke-linejoin:miter;stroke-miterlimit:10;"/><text fill="#000000" font-family="Verdana" font-size="13" lengthAdjust="spacing" textLength="178.2676" x="1445.45" y="399.6071">append completed or failed</text><text fill="#000000" font-family="Verdana" font-size="13" lengthAdjust="spacing" textLength="156.8125" x="1456.1775" y="415.4064">encrypted stream result</text></g><!--link Operator to AdminApp--><g class="link" data-entity-1="ent0002" data-entity-2="ent0008" data-link-type="dependency" data-source-line="35" id="lnk22"><path d="M780.98,949.3273 C851.63,956.5573 982.85,960.1973 1074.49,904.4373 C1165.39,849.1373 1217.9782,732.4104 1239.7082,674.3204" fill="none" id="Operator-to-AdminApp" style="stroke:#000000;stroke-width:1;"/><polygon fill="#000000" points="1241.46,669.6373,1234.5603,676.6654,1239.7082,674.3204,1242.0532,679.4683,1241.46,669.6373" style="stroke:#000000;stroke-width:1;stroke-linejoin:miter;stroke-miterlimit:10;"/><text fill="#000000" font-family="Verdana" font-size="13" lengthAdjust="spacing" textLength="222.4409" x="851.49" y="901.5071">local browser or SSH port forward</text></g><!--link AdminApp to AdminDir--><g class="link" data-entity-1="ent0008" data-entity-2="ent0010" data-link-type="dependency" data-source-line="36" id="lnk23"><path d="M1283.73,669.8473 C1316.4,703.7473 1372.62,755.5773 1432.45,781.4373 C1541.42,828.5473 1676.68,836.7593 1757.4,837.0493" fill="none" id="AdminApp-to-AdminDir" style="stroke:#000000;stroke-width:1;"/><polygon fill="#000000" points="1762.4,837.0673,1753.4144,833.035,1757.4,837.0493,1753.3857,841.0349,1762.4,837.0673" style="stroke:#000000;stroke-width:1;stroke-linejoin:miter;stroke-miterlimit:10;"/><text fill="#000000" font-family="Verdana" font-size="13" lengthAdjust="spacing" textLength="106.7485" x="1481.45" y="778.5071">serves admin UI</text></g><!--link AdminApp to State--><g class="link" data-entity-1="ent0008" data-entity-2="ent0012" data-link-type="dependency" data-source-line="37" id="lnk24"><path d="M1340.72,656.6373 C1420.3,670.2673 1540.32,680.3273 1636.45,643.4373 C1653.2,637.0173 1651.06,625.6473 1666.45,616.4373 C1691.19,601.6373 1715.5684,591.3436 1742.1784,582.2536" fill="none" id="AdminApp-to-State" style="stroke:#000000;stroke-width:1;"/><polygon fill="#000000" points="1746.91,580.6373,1737.1002,579.7614,1742.1784,582.2536,1739.6863,587.3319,1746.91,580.6373" style="stroke:#000000;stroke-width:1;stroke-linejoin:miter;stroke-miterlimit:10;"/><text fill="#000000" font-family="Verdana" font-size="13" lengthAdjust="spacing" textLength="186.4751" x="1441.45" y="640.5071">device/key/token operations</text></g><!--link AdminApp to SharedDir--><g class="link" data-entity-1="ent0008" data-entity-2="ent0011" data-link-type="dependency" data-source-line="38" id="lnk25"><path d="M1328.3,669.9173 C1359.75,682.0773 1397.24,694.3873 1432.45,700.4373 C1560.48,722.4273 1709.3013,692.108 1781.4313,673.948" fill="none" id="AdminApp-to-SharedDir" style="stroke:#000000;stroke-width:1;"/><polygon fill="#000000" points="1786.28,672.7273,1776.5758,671.0457,1781.4313,673.948,1778.529,678.8036,1786.28,672.7273" style="stroke:#000000;stroke-width:1;stroke-linejoin:miter;stroke-miterlimit:10;"/><text fill="#000000" font-family="Verdana" font-size="13" lengthAdjust="spacing" textLength="136.043" x="1466.45" y="697.5071">status and file listing</text></g><!--link AdminApp to TokenFile--><g class="link" data-entity-1="ent0008" data-entity-2="ent0013" data-link-type="dependency" data-source-line="39" id="lnk26"><path d="M1300.27,669.9373 C1334.8,692.4373 1384.29,720.5673 1432.45,733.4373 C1538.5,761.7973 1661.3141,759.3719 1742.2441,753.2919" fill="none" id="AdminApp-to-TokenFile" style="stroke:#000000;stroke-width:1;"/><polygon fill="#000000" points="1747.23,752.9173,1737.9556,749.6028,1742.2441,753.2919,1738.555,757.5803,1747.23,752.9173" style="stroke:#000000;stroke-width:1;stroke-linejoin:miter;stroke-miterlimit:10;"/><text fill="#000000" font-family="Verdana" font-size="13" lengthAdjust="spacing" textLength="105.8789" x="1481.95" y="730.5071">local token copy</text></g><!--link AdminApp to DownloadHistory--><g class="link" data-entity-1="ent0008" data-entity-2="ent0014" data-link-type="dependency" data-source-line="40" id="lnk27"><path d="M1340.73,621.8673 C1362.95,614.4473 1385.38,603.5273 1402.45,587.4373 C1428.28,563.0973 1404.87,535.7673 1432.45,513.4373 C1433.88,512.2873 1599.8945,483.1371 1716.4145,462.7971" fill="none" id="AdminApp-to-DownloadHistory" style="stroke:#000000;stroke-width:1;"/><polygon fill="#000000" points="1721.34,461.9373,1711.7862,459.5445,1716.4145,462.7971,1713.1619,467.4254,1721.34,461.9373" style="stroke:#000000;stroke-width:1;stroke-linejoin:miter;stroke-miterlimit:10;"/><text fill="#000000" font-family="Verdana" font-size="13" lengthAdjust="spacing" textLength="98.687" x="1485.45" y="458.8571">GET search/list</text><text fill="#000000" font-family="Verdana" font-size="13" lengthAdjust="spacing" textLength="85.9346" x="1491.8262" y="474.6564">DELETE clear</text></g><!--link AdminApp to GMN28--><g class="link" data-entity-1="ent0008" data-entity-2="ent0029" data-link-type="association" data-source-line="43" id="lnk30"><path d="M1166.27,643.6173 C1099.12,643.0673 1010,629.7273 962.49,569.9373 C868.63,451.8073 1058.24,310.9073 1173.59,240.3673" fill="none" id="AdminApp-GMN28" style="stroke:#000000;stroke-width:1;stroke-dasharray:7,7;"/></g><!--link DownloadHistory to GMN31--><g class="link" data-entity-1="ent0014" data-entity-2="ent0032" data-link-type="association" data-source-line="51" id="lnk33"><path d="M1721.33,446.7473 C1656.32,442.4273 1577.79,424.6273 1534.45,368.9373 C1515.07,344.0373 1515.27,322.9973 1534.45,297.9373 C1565.79,256.9973 1615.91,235.7173 1665.96,225.0473" fill="none" id="DownloadHistory-GMN31" style="stroke:#000000;stroke-width:1;stroke-dasharray:7,7;"/></g><!--link ClientApp to GMN34--><g class="link" data-entity-1="ent0007" data-entity-2="ent0035" data-link-type="association" data-source-line="56" id="lnk36"><path d="M1181.18,488.6373 C1066.42,418.7573 865.02,271.9773 962.49,150.9373 C998.57,106.1373 1058.24,88.2873 1114.19,82.4173" fill="none" id="ClientApp-GMN34" style="stroke:#000000;stroke-width:1;stroke-dasharray:7,7;"/></g><?plantuml-src VLNVRzis47xNNt7pus1RJe5jRHu6f8ax1-kw0F7sv1TQEaTiA98ZgRX2qVzzTqT9jHriC63Bn_lkntSVJp-a1bi4RvIsXS53WkGWwAScGQq3LaaxMnH99uDG6TVLiRTL3Q6pIHCkEU-CU-gBGbN91PYz3-uOCP2lHfjce28Cfj7ZewkK0USnAFel7dyEVmh90BDR_ZaO5H3MzHFkRE-w09mP6XUJLIqAZW-BmheQORQX0sXLrMYR3yNmjG2eNEkTfMfWLas1wvtbC3Mapbeqrn9TS5in50JCWJ_njm-kmXXtbXfvmR3y7CLNpZZ7HHRk7TPVV20CAEztzkhDByiLVQwktrozVNUrisr7vUqHZ8u9hRPF4l1Me3VUNyPKTQljVuTyjre9_eRTClmRjt1mfgPfp7otDxegTvP6YfewW2FkuQzx0Jt8uPqE9m39H_v6ffMp3-wIuzmxDanfASUFyfpFQvNKNaLYaP_Ac5H2uivPwbzHt-5txETGuuicTkSxAtcsxXbj3iN-54Q5f0yado7CKjmMQV8Jn0Tjy7NAsXsf1rKl6kBPXNx8RYWmyV_JQWKfA1iFr0Knsvb4CsvvggkV1qhlXWYR7A0WNaUHBnQ_YWRX6ZRRxSCZCGJArd3pS5-8dHsodiZbHDM3neOZzfe6FyG2uvpVg-fvPqlbTVcZ16O2TKLfYk8xWE7J20ak4esWROrVbargZK19CjJx1MoQ5S5OY70W4kEGAg1gOUJl5P97GwXfZ0BAavHG5_uNB1AI2aA2iCOD9hg9j1mEYlBJrKHRXTwpSIWZpwOenaqXCKUnS_4Yq_qm5pf_VDo0Tu4wSk6eGbrCpXFoZArHuUT-OvUvh_8P-r9KDwmlsetn0d12A0-hosGohS8AtVDpm2JTgOcSe7A-F_TypU1lwosLhqBLb1nxP-_M7zVRDUrUCl9UfDhtBYNNWZkShePjWyFU6-c9uApfGNRJaZpAp0VNBlAJqaY4r5EVwrmmW5t_rdYCr-1egRpGunpoCiXIclFjPM4CnSDu3Sd-tgLcM7yO8eLs7ewQRFHAWjEjkonOADpEgwOkBoVGzXq5DOCMwMfBkBosmMkFXbuGG06nvYBk4-Z8iQbCjj9MMQ0eMHHOHlM284lJf_-futHlvxi8mNMqOw2BdBtgWauzDAXeNmeh9A15m7ywNaERFsvkvy0lLEAtPHOi4JPoPvsjk0PwH_TCISflvPDg_WK0?></g></svg>