<svg xmlns="http://www.w3.org/2000/svg" xmlns:xlink="http://www.w3.org/1999/xlink" contentStyleType="text/css" data-diagram-type="DESCRIPTION" height="800px" preserveAspectRatio="none" style="width:1914px;height:800px;background:#FFFFFF;" version="1.1" viewBox="0 0 1914 800" width="1914px" zoomAndPan="magnify"><?plantuml 1.2026.6?><defs/><g><g class="title" data-source-line="4"><text fill="#000000" font-family="Verdana" font-size="22" font-weight="700" lengthAdjust="spacing" textLength="358.6816" x="776.8242" y="37.1182">cloudsyncd runtime topology</text></g><!--cluster Host--><g class="cluster" data-qualified-name="Host" data-source-line="10" id="ent0004"><polygon fill="#FFFFFF" points="654.54,218.4373,664.54,208.4373,1889.33,208.4373,1889.33,682.4373,1879.33,692.4373,654.54,692.4373,654.54,218.4373" style="stroke:#000000;stroke-width:1;stroke-linejoin:miter;stroke-miterlimit:10;"/><line style="stroke:#000000;stroke-width:1;" x1="1879.33" x2="1889.33" y1="218.4373" y2="208.4373"/><line style="stroke:#000000;stroke-width:1;" x1="654.54" x2="1879.33" y1="218.4373" y2="218.4373"/><line style="stroke:#000000;stroke-width:1;" x1="1879.33" x2="1879.33" y1="218.4373" y2="692.4373"/><text fill="#000000" font-family="Verdana" font-size="14" font-weight="700" lengthAdjust="spacing" textLength="107.2354" x="1214.3173" y="235.5125">Host machine</text></g><!--cluster Node--><g class="cluster" data-qualified-name="Host.Node" data-source-line="13" id="ent0006"><polygon fill="#FFFFFF" points="1203.81,267.4373,1213.81,257.4373,1409.72,257.4373,1409.72,502.4373,1399.72,512.4373,1203.81,512.4373,1203.81,267.4373" style="stroke:#000000;stroke-width:1;stroke-linejoin:miter;stroke-miterlimit:10;"/><line style="stroke:#000000;stroke-width:1;" x1="1399.72" x2="1409.72" y1="267.4373" y2="257.4373"/><line style="stroke:#000000;stroke-width:1;" x1="1203.81" x2="1399.72" y1="267.4373" y2="267.4373"/><line style="stroke:#000000;stroke-width:1;" x1="1399.72" x2="1399.72" y1="267.4373" y2="512.4373"/><text fill="#000000" font-family="Verdana" font-size="14" font-weight="700" lengthAdjust="spacing" textLength="105.8408" x="1249.8446" y="284.5125">Node process</text><text fill="#000000" font-family="Verdana" font-size="14" font-weight="700" lengthAdjust="spacing" textLength="68.9199" x="1268.305" y="301.5271">server.js</text></g><!--entity Tunnel--><g class="entity" data-qualified-name="Host.Tunnel" data-source-line="11" id="ent0005"><rect fill="#FFFFFF" height="64.0293" rx="2.5" ry="2.5" style="stroke:#000000;stroke-width:1;" width="180.1572" x="670.54" y="268.4273"/><rect fill="#FFFFFF" height="10" style="stroke:#000000;stroke-width:1;" width="15" x="830.6972" y="273.4273"/><rect fill="#FFFFFF" height="2" style="stroke:#000000;stroke-width:1;" width="4" x="828.6972" y="275.4273"/><rect fill="#FFFFFF" height="2" style="stroke:#000000;stroke-width:1;" width="4" x="828.6972" y="279.4273"/><text fill="#000000" font-family="Verdana" font-size="14" lengthAdjust="spacing" textLength="77.4238" x="685.54" y="302.5025">cloudflared</text><text fill="#000000" font-family="Verdana" font-size="14" lengthAdjust="spacing" textLength="140.1572" x="685.54" y="319.5171">named tunnel: sync</text></g><!--entity PublicDir--><g class="entity" data-qualified-name="Host.PublicDir" data-source-line="18" id="ent0009"><path d="M1755.66,249.9373 L1796.66,249.9373 A3.75,3.75 0 0 1 1799.16,252.4373 L1806.16,270.9373 L1828.2996,270.9373 A2.5,2.5 0 0 1 1830.7996,273.4373 L1830.7996,302.452 A2.5,2.5 0 0 1 1828.2996,304.952 L1755.66,304.952 A2.5,2.5 0 0 1 1753.16,302.452 L1753.16,252.4373 A2.5,2.5 0 0 1 1755.66,249.9373" fill="#FFFFFF" style="stroke:#000000;stroke-width:1;"/><line style="stroke:#000000;stroke-width:1;" x1="1753.16" x2="1806.16" y1="270.9373" y2="270.9373"/><text fill="#000000" font-family="Verdana" font-size="14" lengthAdjust="spacing" textLength="47.6396" x="1763.16" y="292.0125">public/</text></g><!--entity AdminDir--><g class="entity" data-qualified-name="Host.AdminDir" data-source-line="19" id="ent0010"><path d="M1754.58,545.9373 L1795.58,545.9373 A3.75,3.75 0 0 1 1798.08,548.4373 L1805.08,566.9373 L1829.3866,566.9373 A2.5,2.5 0 0 1 1831.8866,569.4373 L1831.8866,598.452 A2.5,2.5 0 0 1 1829.3866,600.952 L1754.58,600.952 A2.5,2.5 0 0 1 1752.08,598.452 L1752.08,548.4373 A2.5,2.5 0 0 1 1754.58,545.9373" fill="#FFFFFF" style="stroke:#000000;stroke-width:1;"/><line style="stroke:#000000;stroke-width:1;" x1="1752.08" x2="1805.08" y1="566.9373" y2="566.9373"/><text fill="#000000" font-family="Verdana" font-size="14" lengthAdjust="spacing" textLength="49.8066" x="1762.08" y="588.0125">admin/</text></g><!--entity SharedDir--><g class="entity" data-qualified-name="Host.SharedDir" data-source-line="20" id="ent0011"><path d="M1752.5,455.9373 L1793.5,455.9373 A3.75,3.75 0 0 1 1796,458.4373 L1803,476.9373 L1831.4561,476.9373 A2.5,2.5 0 0 1 1833.9561,479.4373 L1833.9561,508.452 A2.5,2.5 0 0 1 1831.4561,510.952 L1752.5,510.952 A2.5,2.5 0 0 1 1750,508.452 L1750,458.4373 A2.5,2.5 0 0 1 1752.5,455.9373" fill="#FFFFFF" style="stroke:#000000;stroke-width:1;"/><line style="stroke:#000000;stroke-width:1;" x1="1750" x2="1803" y1="476.9373" y2="476.9373"/><text fill="#000000" font-family="Verdana" font-size="14" lengthAdjust="spacing" textLength="53.9561" x="1760" y="498.0125">shared/</text></g><!--entity State--><g class="entity" data-qualified-name="Host.State" data-source-line="21" id="ent0012"><path d="M1710.63,350.4173 C1710.63,340.4173 1791.9801,340.4173 1791.9801,340.4173 C1791.9801,340.4173 1873.3302,340.4173 1873.3302,350.4173 L1873.3302,410.4613 C1873.3302,420.4613 1791.9801,420.4613 1791.9801,420.4613 C1791.9801,420.4613 1710.63,420.4613 1710.63,410.4613 L1710.63,350.4173" fill="#FFFFFF" style="stroke:#000000;stroke-width:1;"/><path d="M1710.63,350.4173 C1710.63,360.4173 1791.9801,360.4173 1791.9801,360.4173 C1791.9801,360.4173 1873.3302,360.4173 1873.3302,350.4173" fill="none" style="stroke:#000000;stroke-width:1;"/><text fill="#000000" font-family="Verdana" font-size="14" lengthAdjust="spacing" textLength="107.0508" x="1720.63" y="378.4925">data/state.json</text><text fill="#000000" font-family="Verdana" font-size="14" lengthAdjust="spacing" textLength="142.7002" x="1720.63" y="395.5071">masterKey, devices,</text><text fill="#000000" font-family="Verdana" font-size="14" lengthAdjust="spacing" textLength="86.0576" x="1720.63" y="412.5218">adminToken</text></g><!--entity TokenFile--><g class="entity" data-qualified-name="Host.TokenFile" data-source-line="22" id="ent0013"><rect fill="#FFFFFF" height="40.0146" rx="2.5" ry="2.5" style="stroke:#000000;stroke-width:1;" width="161.8105" x="1711.07" y="636.4373"/><polygon fill="#FFFFFF" points="1855.8805,641.4373,1855.8805,655.4373,1867.8805,655.4373,1867.8805,647.4373,1861.8805,641.4373,1855.8805,641.4373" style="stroke:#000000;stroke-width:1;stroke-linejoin:miter;stroke-miterlimit:10;"/><line style="stroke:#000000;stroke-width:1;" x1="1861.8805" x2="1861.8805" y1="641.4373" y2="647.4373"/><line style="stroke:#000000;stroke-width:1;" x1="1867.8805" x2="1861.8805" y1="647.4373" y2="647.4373"/><text fill="#000000" font-family="Verdana" font-size="14" lengthAdjust="spacing" textLength="131.8105" x="1721.07" y="663.5125">data/.admin-token</text></g><!--entity ClientApp--><g class="entity" data-qualified-name="Host.Node.ClientApp" data-source-line="14" id="ent0007"><rect fill="#FFFFFF" height="81.0439" rx="2.5" ry="2.5" style="stroke:#000000;stroke-width:1;" width="168.1533" x="1222.69" y="315.9173"/><rect fill="#FFFFFF" height="10" style="stroke:#000000;stroke-width:1;" width="15" x="1370.8433" y="320.9173"/><rect fill="#FFFFFF" height="2" style="stroke:#000000;stroke-width:1;" width="4" x="1368.8433" y="322.9173"/><rect fill="#FFFFFF" height="2" style="stroke:#000000;stroke-width:1;" width="4" x="1368.8433" y="326.9173"/><text fill="#000000" font-family="Verdana" font-size="14" lengthAdjust="spacing" textLength="128.1533" x="1237.69" y="349.9925">client Express app</text><text fill="#000000" font-family="Verdana" font-size="14" lengthAdjust="spacing" textLength="119.54" x="1237.69" y="367.0071">127.0.0.1:21891</text><text fill="#000000" font-family="Verdana" font-size="14" lengthAdjust="spacing" textLength="121.3105" x="1237.69" y="384.0218">must be listening</text></g><!--entity AdminApp--><g class="entity" data-qualified-name="Host.Node.AdminApp" data-source-line="15" id="ent0008"><rect fill="#FFFFFF" height="64.0293" rx="2.5" ry="2.5" style="stroke:#000000;stroke-width:1;" width="173.9092" x="1219.81" y="432.4273"/><rect fill="#FFFFFF" height="10" style="stroke:#000000;stroke-width:1;" width="15" x="1373.7192" y="437.4273"/><rect fill="#FFFFFF" height="2" style="stroke:#000000;stroke-width:1;" width="4" x="1371.7192" y="439.4273"/><rect fill="#FFFFFF" height="2" style="stroke:#000000;stroke-width:1;" width="4" x="1371.7192" y="443.4273"/><text fill="#000000" font-family="Verdana" font-size="14" lengthAdjust="spacing" textLength="133.9092" x="1234.81" y="466.5025">admin Express app</text><text fill="#000000" font-family="Verdana" font-size="14" lengthAdjust="spacing" textLength="119.54" x="1234.81" y="483.5171">127.0.0.1:21900</text></g><!--entity Browser--><g class="entity" data-qualified-name="Browser" data-source-line="6" id="ent0001"><ellipse cx="60.875" cy="270.4373" fill="#FFFFFF" rx="8" ry="8" style="stroke:#000000;stroke-width:1;"/><path d="M60.875,278.4373 L60.875,305.4373 M47.875,286.4373 L73.875,286.4373 M60.875,305.4373 L47.875,320.4373 M60.875,305.4373 L73.875,320.4373" fill="none" style="stroke:#000000;stroke-width:1;"/><text fill="#000000" font-family="Verdana" font-size="14" lengthAdjust="spacing" textLength="99.75" x="11" y="336.5125">Browser client</text></g><!--entity Operator--><g class="entity" data-qualified-name="Operator" data-source-line="7" id="ent0002"><ellipse cx="760.6133" cy="717.4373" fill="#FFFFFF" rx="8" ry="8" style="stroke:#000000;stroke-width:1;"/><path d="M760.6133,725.4373 L760.6133,752.4373 M747.6133,733.4373 L773.6133,733.4373 M760.6133,752.4373 L747.6133,767.4373 M760.6133,752.4373 L773.6133,767.4373" fill="none" style="stroke:#000000;stroke-width:1;"/><text fill="#000000" font-family="Verdana" font-size="14" lengthAdjust="spacing" textLength="100.6865" x="710.27" y="783.5125">Local operator</text></g><!--entity Edge--><g class="entity" data-qualified-name="Edge" data-source-line="8" id="ent0003"><path d="M298.3749,277.9694 C301.213,272.0934 305.0794,271.6075 309.9419,275.5954 C313.276,269.4886 318.4907,269.6812 321.8651,275.5553 C324.4727,269.7445 328.2601,268.9723 332.6806,273.6936 C335.5883,269.5242 340.1404,268.6675 342.6063,274.1481 C345.1953,267.4148 351.1267,266.5617 355.1057,272.8097 C357.4492,266.0655 361.9386,265.6594 366.4169,270.7734 C369.5341,266.3682 373.1789,266.588 376.1389,270.9478 C380.3392,265.6627 385.3936,265.6917 388.4842,272.1176 C391.6714,267.2041 396.4694,267.4961 398.7993,272.969 C402.6359,266.6646 407.7237,267.721 411.5431,272.9879 C415.2965,268.8517 420.0527,269.6761 421.6125,275.2603 C425.2261,268.692 431.1944,269.4152 433.9955,276.0237 C437.481,270.957 441.7848,272.3673 443.9984,277.2966 C447.6187,272.1125 453.3152,273.1124 456.0807,278.2931 C462.4118,281.1559 462.5464,286.8811 456.7163,290.3832 C461.1507,293.6977 461.3909,298.401 456.3706,301.4193 C461.6537,304.3854 461.7237,309.6676 456.5032,312.7566 C462.3919,317.4896 461.1216,322.4361 454.4513,325.0776 C451.6616,330.3443 447.8478,332.0223 443.354,326.8975 C439.5421,332.0303 435.6276,330.5176 432.6865,325.9409 C429.8373,330.3774 425.0169,331.2907 422.3586,325.7433 C420.133,330.8023 416.0031,332.7982 411.7394,327.9218 C408.074,333.379 402.7722,333.0456 400.3724,326.7026 C397.4182,333.8552 392.0462,333.717 387.2588,328.6737 C383.7735,333.2638 380.1604,334.198 376.5383,328.8208 C372.1195,333.9786 368.0771,332.9429 365.561,326.948 C362.6633,331.3939 358.2007,331.6257 355.2385,327.0216 C351.7727,331.9373 346.8268,331.9225 344.1146,326.2314 C341.4165,332.1531 337.0697,332.0775 333.2147,327.4238 C328.7661,333.5774 324.7381,333.7533 320.6128,327.1055 C316.0081,332.6779 312.1667,332.2211 308.9712,325.744 C306.4183,330.232 301.9922,331.5833 298.9634,326.2278 C292.2181,323.6695 291.3111,318.2736 296.8716,313.6661 C290.5744,310.8706 288.1808,306.0847 294.2341,300.7644 C290.9586,296.1853 290.651,292.0753 297.1905,290.258 C291.3836,285.8108 291.3381,281.1786 298.3749,277.9694" fill="#FFFFFF" style="stroke:#000000;stroke-width:1;"/><text fill="#000000" font-family="Verdana" font-size="14" lengthAdjust="spacing" textLength="110.7422" x="304.75" y="297.5025">Cloudflare Edge</text><text fill="#000000" font-family="Verdana" font-size="14" lengthAdjust="spacing" textLength="142.584" x="304.75" y="314.5171">your sync hostname</text></g><g class="entity" data-qualified-name="GMN25" data-source-line="40" id="ent0026"><path d="M1166.9,150.6373 L1166.9,192.2359 L1446.6305,192.2359 L1446.6305,160.6373 L1436.6305,150.6373 L1166.9,150.6373" fill="#FFFFFF" style="stroke:#000000;stroke-width:1;"/><path d="M1436.6305,150.6373 L1436.6305,160.6373 L1446.6305,160.6373 L1436.6305,150.6373" fill="#FFFFFF" style="stroke:#000000;stroke-width:1;"/><text fill="#000000" font-family="Verdana" font-size="13" lengthAdjust="spacing" textLength="213.6812" x="1172.9" y="168.7071">The tunnel forwards only 21891.</text><text fill="#000000" font-family="Verdana" font-size="13" lengthAdjust="spacing" textLength="258.7305" x="1172.9" y="184.5064">/admin and /api/local/* stay local-only.</text></g><g class="entity" data-qualified-name="GMN28" data-source-line="45" id="ent0029"><path d="M1167.76,58.7373 L1167.76,116.1353 L1445.7576,116.1353 L1445.7576,68.7373 L1435.7576,58.7373 L1167.76,58.7373" fill="#FFFFFF" style="stroke:#000000;stroke-width:1;"/><path d="M1435.7576,58.7373 L1435.7576,68.7373 L1445.7576,68.7373 L1435.7576,58.7373" fill="#FFFFFF" style="stroke:#000000;stroke-width:1;"/><text fill="#000000" font-family="Verdana" font-size="13" lengthAdjust="spacing" textLength="228.522" x="1173.76" y="76.8071">Public routes use security headers,</text><text fill="#000000" font-family="Verdana" font-size="13" lengthAdjust="spacing" textLength="256.9976" x="1173.76" y="92.6064">per-request HMAC, timestamp window,</text><text fill="#000000" font-family="Verdana" font-size="13" lengthAdjust="spacing" textLength="187.8779" x="1173.76" y="108.4058">and nonce replay protection.</text></g><g class="entity" data-qualified-name="GMN31" data-source-line="51" id="ent0032"><path d="M638.33,134.7373 L638.33,192.1353 A0,0 0 0 0 638.33,192.1353 L756.62,192.1353 L760.62,268.0673 L764.62,192.1353 L882.8945,192.1353 A0,0 0 0 0 882.8945,192.1353 L882.8945,144.7373 L872.8945,134.7373 L638.33,134.7373 A0,0 0 0 0 638.33,134.7373" fill="#FFFFFF" style="stroke:#000000;stroke-width:1;"/><path d="M872.8945,134.7373 L872.8945,144.7373 L882.8945,144.7373 L872.8945,134.7373" fill="#FFFFFF" style="stroke:#000000;stroke-width:1;"/><text fill="#000000" font-family="Verdana" font-size="13" lengthAdjust="spacing" textLength="223.5645" x="644.33" y="152.8071">A registered tunnel is not enough.</text><text fill="#000000" font-family="Verdana" font-size="13" lengthAdjust="spacing" textLength="184.6787" x="644.33" y="168.6064">If 127.0.0.1:21891 is down,</text><text fill="#000000" font-family="Verdana" font-size="13" lengthAdjust="spacing" textLength="151.9502" x="644.33" y="184.4058">Cloudflare returns 502.</text></g><!--link Browser to Edge--><g class="link" data-entity-1="ent0001" data-entity-2="ent0003" data-link-type="dependency" data-source-line="25" id="lnk14"><path d="M111.15,300.4373 C158.87,300.4373 227.19,300.4373 284.45,300.4373" fill="none" id="Browser-to-Edge" style="stroke:#000000;stroke-width:1;"/><polygon fill="#000000" points="289.45,300.4373,280.45,296.4373,284.45,300.4373,280.45,304.4373,289.45,300.4373" style="stroke:#000000;stroke-width:1;stroke-linejoin:miter;stroke-miterlimit:10;"/><text fill="#000000" font-family="Verdana" font-size="13" lengthAdjust="spacing" textLength="117.5459" x="141.75" y="297.5071">HTTPS UI and API</text></g><!--link Edge to Tunnel--><g class="link" data-entity-1="ent0003" data-entity-2="ent0005" data-link-type="dependency" data-source-line="26" id="lnk15"><path d="M462.42,300.4373 C524.2,300.4373 602.48,300.4373 665.17,300.4373" fill="none" id="Edge-to-Tunnel" style="stroke:#000000;stroke-width:1;"/><polygon fill="#000000" points="670.17,300.4373,661.17,296.4373,665.17,300.4373,661.17,304.4373,670.17,300.4373" style="stroke:#000000;stroke-width:1;stroke-linejoin:miter;stroke-miterlimit:10;"/><text fill="#000000" font-family="Verdana" font-size="13" lengthAdjust="spacing" textLength="114.6704" x="493.33" y="297.5071">Cloudflare Tunnel</text></g><!--link Tunnel to ClientApp--><g class="link" data-entity-1="ent0005" data-entity-2="ent0007" data-link-type="dependency" data-source-line="27" id="lnk16"><path d="M851.17,309.6573 C954.19,320.2573 1117.0463,337.0154 1217.4063,347.3454" fill="none" id="Tunnel-to-ClientApp" style="stroke:#000000;stroke-width:1;"/><polygon fill="#000000" points="1222.38,347.8573,1213.8369,342.9568,1217.4063,347.3454,1213.0177,350.9148,1222.38,347.8573" style="stroke:#000000;stroke-width:1;stroke-linejoin:miter;stroke-miterlimit:10;"/><text fill="#000000" font-family="Verdana" font-size="13" lengthAdjust="spacing" textLength="96.021" x="977.1612" y="298.0571">HTTP loopback</text><text fill="#000000" font-family="Verdana" font-size="13" lengthAdjust="spacing" textLength="127.5435" x="961.4" y="313.8564">/api/* and static UI</text></g><!--link ClientApp to PublicDir--><g class="link" data-entity-1="ent0007" data-entity-2="ent0009" data-link-type="dependency" data-source-line="29" id="lnk17"><path d="M1391.11,342.8173 C1496.94,325.5073 1670.1756,297.1944 1747.8856,284.4844" fill="none" id="ClientApp-to-PublicDir" style="stroke:#000000;stroke-width:1;"/><polygon fill="#000000" points="1752.82,283.6773,1743.2924,281.1825,1747.8856,284.4844,1744.5837,289.0776,1752.82,283.6773" style="stroke:#000000;stroke-width:1;stroke-linejoin:miter;stroke-miterlimit:10;"/><text fill="#000000" font-family="Verdana" font-size="13" lengthAdjust="spacing" textLength="189.7251" x="1484.13" y="293.5971">serves index.html and app.js</text></g><!--link ClientApp to SharedDir--><g class="link" data-entity-1="ent0007" data-entity-2="ent0011" data-link-type="dependency" data-source-line="30" id="lnk18"><path d="M1391.27,378.7673 C1418.41,385.7373 1448.72,393.2273 1476.63,399.4373 C1566.73,419.5073 1592.12,412.2173 1680.63,438.4373 C1704.04,445.3773 1724.7237,453.4858 1745.1737,462.3658" fill="none" id="ClientApp-to-SharedDir" style="stroke:#000000;stroke-width:1;"/><polygon fill="#000000" points="1749.76,464.3573,1743.0979,457.1036,1745.1737,462.3658,1739.9115,464.4416,1749.76,464.3573" style="stroke:#000000;stroke-width:1;stroke-linejoin:miter;stroke-miterlimit:10;"/><text fill="#000000" font-family="Verdana" font-size="13" lengthAdjust="spacing" textLength="202.2998" x="1477.63" y="396.5071">list files and stream downloads</text></g><!--link ClientApp to State--><g class="link" data-entity-1="ent0007" data-entity-2="ent0012" data-link-type="dependency" data-source-line="31" id="lnk19"><path d="M1391.11,360.5773 C1480.61,365.0273 1616.8462,371.7889 1705.3062,376.1889" fill="none" id="ClientApp-to-State" style="stroke:#000000;stroke-width:1;"/><polygon fill="#000000" points="1710.3,376.4373,1701.5098,371.9951,1705.3062,376.1889,1701.1124,379.9853,1710.3,376.4373" style="stroke:#000000;stroke-width:1;stroke-linejoin:miter;stroke-miterlimit:10;"/><text fill="#000000" font-family="Verdana" font-size="13" lengthAdjust="spacing" textLength="168.5811" x="1494.63" y="361.9571">masterKey and device list</text></g><!--link Operator to AdminApp--><g class="link" data-entity-1="ent0002" data-entity-2="ent0008" data-link-type="dependency" data-source-line="33" id="lnk20"><path d="M811.22,754.8873 C887.11,763.6873 1034.03,770.2773 1136.9,709.4373 C1220.49,659.9973 1270.5304,555.6926 1292.1904,501.2926" fill="none" id="Operator-to-AdminApp" style="stroke:#000000;stroke-width:1;"/><polygon fill="#000000" points="1294.04,496.6473,1286.9945,503.5292,1292.1904,501.2926,1294.427,506.4886,1294.04,496.6473" style="stroke:#000000;stroke-width:1;stroke-linejoin:miter;stroke-miterlimit:10;"/><text fill="#000000" font-family="Verdana" font-size="13" lengthAdjust="spacing" textLength="222.4409" x="913.9" y="706.5071">local browser or SSH port forward</text></g><!--link AdminApp to AdminDir--><g class="link" data-entity-1="ent0008" data-entity-2="ent0010" data-link-type="dependency" data-source-line="34" id="lnk21"><path d="M1357.27,496.7673 C1389.8,516.2573 1434.07,539.5373 1476.63,551.4373 C1572.78,578.3373 1686.6039,578.2637 1746.9039,575.8937" fill="none" id="AdminApp-to-AdminDir" style="stroke:#000000;stroke-width:1;"/><polygon fill="#000000" points="1751.9,575.6973,1742.7499,572.0538,1746.9039,575.8937,1743.064,580.0477,1751.9,575.6973" style="stroke:#000000;stroke-width:1;stroke-linejoin:miter;stroke-miterlimit:10;"/><text fill="#000000" font-family="Verdana" font-size="13" lengthAdjust="spacing" textLength="106.7485" x="1525.63" y="548.5071">serves admin UI</text></g><!--link AdminApp to State--><g class="link" data-entity-1="ent0008" data-entity-2="ent0012" data-link-type="dependency" data-source-line="35" id="lnk22"><path d="M1394.19,477.6373 C1471.34,486.0873 1586.37,490.3973 1680.63,459.4373 C1681.51,459.1473 1703.9803,443.0761 1730.8103,423.7861" fill="none" id="AdminApp-to-State" style="stroke:#000000;stroke-width:1;"/><polygon fill="#000000" points="1734.87,420.8673,1725.2276,422.8734,1730.8103,423.7861,1729.8976,429.3688,1734.87,420.8673" style="stroke:#000000;stroke-width:1;stroke-linejoin:miter;stroke-miterlimit:10;"/><text fill="#000000" font-family="Verdana" font-size="13" lengthAdjust="spacing" textLength="186.4751" x="1485.63" y="456.5071">device/key/token operations</text></g><!--link AdminApp to SharedDir--><g class="link" data-entity-1="ent0008" data-entity-2="ent0011" data-link-type="dependency" data-source-line="36" id="lnk23"><path d="M1393.82,496.3573 C1420.03,504.5973 1449.18,512.3073 1476.63,516.4373 C1566.29,529.9273 1590.92,529.5673 1680.63,516.4373 C1703.98,513.0273 1724.5096,507.3375 1744.9596,500.4775" fill="none" id="AdminApp-to-SharedDir" style="stroke:#000000;stroke-width:1;"/><polygon fill="#000000" points="1749.7,498.8873,1739.8951,497.9573,1744.9596,500.4775,1742.4394,505.5419,1749.7,498.8873" style="stroke:#000000;stroke-width:1;stroke-linejoin:miter;stroke-miterlimit:10;"/><text fill="#000000" font-family="Verdana" font-size="13" lengthAdjust="spacing" textLength="136.043" x="1510.63" y="513.5071">status and file listing</text></g><!--link AdminApp to TokenFile--><g class="link" data-entity-1="ent0008" data-entity-2="ent0013" data-link-type="dependency" data-source-line="37" id="lnk24"><path d="M1337.71,496.9273 C1369.11,528.8473 1421.49,576.3273 1476.63,601.4373 C1551.5,635.5473 1640.3041,648.2116 1705.8641,653.1516" fill="none" id="AdminApp-to-TokenFile" style="stroke:#000000;stroke-width:1;"/><polygon fill="#000000" points="1710.85,653.5273,1702.176,648.8624,1705.8641,653.1516,1701.5749,656.8398,1710.85,653.5273" style="stroke:#000000;stroke-width:1;stroke-linejoin:miter;stroke-miterlimit:10;"/><text fill="#000000" font-family="Verdana" font-size="13" lengthAdjust="spacing" textLength="105.8789" x="1526.13" y="598.5071">local token copy</text></g><!--link AdminApp to GMN25--><g class="link" data-entity-1="ent0008" data-entity-2="ent0026" data-link-type="association" data-source-line="40" id="lnk27"><path d="M1219.56,469.6873 C1154.8,468.3173 1070.16,454.3273 1024.9,396.9373 C953,305.7873 1132.76,228.4773 1237.6,192.7073" fill="none" id="AdminApp-GMN25" style="stroke:#000000;stroke-width:1;stroke-dasharray:7,7;"/></g><!--link ClientApp to GMN28--><g class="link" data-entity-1="ent0007" data-entity-2="ent0029" data-link-type="association" data-source-line="45" id="lnk30"><path d="M1222.33,333.3073 C1116.97,300.2773 958.23,234.2973 1024.9,150.9373 C1058.81,108.5373 1114.44,90.6373 1167.36,84.1073" fill="none" id="ClientApp-GMN28" style="stroke:#000000;stroke-width:1;stroke-dasharray:7,7;"/></g><?plantuml-src VLHDRzim3BthLt0v3atI51YszZ0Wwpgas5U1PBTS59k9jTgY9ybDZM7_VIJjk6cA3G4IntoFJtmazIeLM27KfNNUbBXDa0Y2snK9SXSmIuwyCScb4Y4hgSbZwxCSGkEJOrwYcahQjSROB560qOT0-uY1iGvz6e6DqByw8BvGPakW6eFb_uhutlyngW2ZQ_dPbZOWtEGxNFkMcW2Y30N5v6s5ofEWCPvoXD620r3Ph72-2-gBtmOWewecpwU1KJOapjTUqkIG6k-nlDBioblf2yF4Bl4t-Qu3PHZZsdCX3nWcFwDYDIOQ9ofIEzmyre4vOEjwxMSNRoVd_9bTNSpUNSxMlchuU1k4qiM4tlcT9hnMwhokJtFQl7B-toalpy-LFnTOH_yZ9MofpBaRexhPb2wRAkPEdp-wS1JNzDEd5C-ZiH37kl1IdxjuRfFTsCWcoTCq9fkGhI7FvLakAtp6zWnoV71itjdQgygAxj5tgGJFQMn8RilJqQUPA6oS1fmoFhaI3TTq6B3n-Bts7wvWiLhTBU77BLYVm_pkrkXx0NIzPCZHHFNzxKE26aplSq59L6ziTh_sKrkxwMjDBDMvZ6MCUI88VV2JwJeU4PpFyN5IfAfKAhUBRJcX3KOoJOO0jbnXxAK2sWfoslkIRFw2ARunQ_1OIPtDcigOmqOf_Z0K8gJBj-azvFXokO2Q0gjJsDkGcm4yC9zLriqXc_0CTpXHTuRfFRPJRL-_vdo7n1F2KV5YRDCLBXPe1RmFpmd330n5T08PrQrS0Io_ePIe0jeURy6gm7x53nL685-se6iuOSIqAqdajTkQdNlEnsexgR4G9WOP8K8lv8wNjXi62DGaTglXtOYODS6b5Wgql4tnZ57ioZZWhmQvxOkly-ipaDkK5QiQzZmyj1UKLK7FJGt85tGhjr3ghkJ_dAQVRu0vqtPokuJXcWCNXGJegTaLKltj5awk9i78vCa9ZjOcO6g2Z_3c_E98_2y0?></g></svg>