<svg xmlns="http://www.w3.org/2000/svg" xmlns:xlink="http://www.w3.org/1999/xlink" contentStyleType="text/css" data-diagram-type="DESCRIPTION" height="800px" preserveAspectRatio="none" style="width:1851px;height:800px;background:#FFFFFF;" version="1.1" viewBox="0 0 1851 800" width="1851px" zoomAndPan="magnify"><?plantuml 1.2026.6?><defs/><g><g class="title" data-source-line="4"><text fill="#000000" font-family="Verdana" font-size="22" font-weight="700" lengthAdjust="spacing" textLength="358.6816" x="745.6192" y="37.1182">cloudsyncd runtime topology</text></g><!--cluster Host--><g class="cluster" data-qualified-name="Host" data-source-line="10" id="ent0004"><polygon fill="#FFFFFF" points="624.33,218.4373,634.33,208.4373,1826.92,208.4373,1826.92,682.4373,1816.92,692.4373,624.33,692.4373,624.33,218.4373" style="stroke:#000000;stroke-width:1;stroke-linejoin:miter;stroke-miterlimit:10;"/><line style="stroke:#000000;stroke-width:1;" x1="1816.92" x2="1826.92" y1="218.4373" y2="208.4373"/><line style="stroke:#000000;stroke-width:1;" x1="624.33" x2="1816.92" y1="218.4373" y2="218.4373"/><line style="stroke:#000000;stroke-width:1;" x1="1816.92" x2="1816.92" y1="218.4373" y2="692.4373"/><text fill="#000000" font-family="Verdana" font-size="14" font-weight="700" lengthAdjust="spacing" textLength="107.2354" x="1168.0073" y="235.5125">Host machine</text></g><!--cluster Node--><g class="cluster" data-qualified-name="Host.Node" data-source-line="13" id="ent0006"><polygon fill="#FFFFFF" points="1141.4,295.4373,1151.4,285.4373,1347.31,285.4373,1347.31,512.4373,1337.31,522.4373,1141.4,522.4373,1141.4,295.4373" style="stroke:#000000;stroke-width:1;stroke-linejoin:miter;stroke-miterlimit:10;"/><line style="stroke:#000000;stroke-width:1;" x1="1337.31" x2="1347.31" y1="295.4373" y2="285.4373"/><line style="stroke:#000000;stroke-width:1;" x1="1141.4" x2="1337.31" y1="295.4373" y2="295.4373"/><line style="stroke:#000000;stroke-width:1;" x1="1337.31" x2="1337.31" y1="295.4373" y2="522.4373"/><text fill="#000000" font-family="Verdana" font-size="14" font-weight="700" lengthAdjust="spacing" textLength="105.8408" x="1187.4346" y="312.5125">Node process</text><text fill="#000000" font-family="Verdana" font-size="14" font-weight="700" lengthAdjust="spacing" textLength="68.9199" x="1205.895" y="329.5271">server.js</text></g><!--entity Tunnel--><g class="entity" data-qualified-name="Host.Tunnel" data-source-line="11" id="ent0005"><rect fill="#FFFFFF" height="64.0293" rx="2.5" ry="2.5" style="stroke:#000000;stroke-width:1;" width="180.1572" x="640.33" y="343.4273"/><rect fill="#FFFFFF" height="10" style="stroke:#000000;stroke-width:1;" width="15" x="800.4872" y="348.4273"/><rect fill="#FFFFFF" height="2" style="stroke:#000000;stroke-width:1;" width="4" x="798.4872" y="350.4273"/><rect fill="#FFFFFF" height="2" style="stroke:#000000;stroke-width:1;" width="4" x="798.4872" y="354.4273"/><text fill="#000000" font-family="Verdana" font-size="14" lengthAdjust="spacing" textLength="77.4238" x="655.33" y="377.5025">cloudflared</text><text fill="#000000" font-family="Verdana" font-size="14" lengthAdjust="spacing" textLength="140.1572" x="655.33" y="394.5171">named tunnel: sync</text></g><!--entity PublicDir--><g class="entity" data-qualified-name="Host.PublicDir" data-source-line="18" id="ent0009"><path d="M1693.25,249.9373 L1734.25,249.9373 A3.75,3.75 0 0 1 1736.75,252.4373 L1743.75,270.9373 L1765.8896,270.9373 A2.5,2.5 0 0 1 1768.3896,273.4373 L1768.3896,302.452 A2.5,2.5 0 0 1 1765.8896,304.952 L1693.25,304.952 A2.5,2.5 0 0 1 1690.75,302.452 L1690.75,252.4373 A2.5,2.5 0 0 1 1693.25,249.9373" fill="#FFFFFF" style="stroke:#000000;stroke-width:1;"/><line style="stroke:#000000;stroke-width:1;" x1="1690.75" x2="1743.75" y1="270.9373" y2="270.9373"/><text fill="#000000" font-family="Verdana" font-size="14" lengthAdjust="spacing" textLength="47.6396" x="1700.75" y="292.0125">public/</text></g><!--entity AdminDir--><g class="entity" data-qualified-name="Host.AdminDir" data-source-line="19" id="ent0010"><path d="M1692.17,545.9373 L1733.17,545.9373 A3.75,3.75 0 0 1 1735.67,548.4373 L1742.67,566.9373 L1766.9766,566.9373 A2.5,2.5 0 0 1 1769.4766,569.4373 L1769.4766,598.452 A2.5,2.5 0 0 1 1766.9766,600.952 L1692.17,600.952 A2.5,2.5 0 0 1 1689.67,598.452 L1689.67,548.4373 A2.5,2.5 0 0 1 1692.17,545.9373" fill="#FFFFFF" style="stroke:#000000;stroke-width:1;"/><line style="stroke:#000000;stroke-width:1;" x1="1689.67" x2="1742.67" y1="566.9373" y2="566.9373"/><text fill="#000000" font-family="Verdana" font-size="14" lengthAdjust="spacing" textLength="49.8066" x="1699.67" y="588.0125">admin/</text></g><!--entity SharedDir--><g class="entity" data-qualified-name="Host.SharedDir" data-source-line="20" id="ent0011"><path d="M1690.09,455.9373 L1731.09,455.9373 A3.75,3.75 0 0 1 1733.59,458.4373 L1740.59,476.9373 L1769.0461,476.9373 A2.5,2.5 0 0 1 1771.5461,479.4373 L1771.5461,508.452 A2.5,2.5 0 0 1 1769.0461,510.952 L1690.09,510.952 A2.5,2.5 0 0 1 1687.59,508.452 L1687.59,458.4373 A2.5,2.5 0 0 1 1690.09,455.9373" fill="#FFFFFF" style="stroke:#000000;stroke-width:1;"/><line style="stroke:#000000;stroke-width:1;" x1="1687.59" x2="1740.59" y1="476.9373" y2="476.9373"/><text fill="#000000" font-family="Verdana" font-size="14" lengthAdjust="spacing" textLength="53.9561" x="1697.59" y="498.0125">shared/</text></g><!--entity State--><g class="entity" data-qualified-name="Host.State" data-source-line="21" id="ent0012"><path d="M1648.22,350.4173 C1648.22,340.4173 1729.5701,340.4173 1729.5701,340.4173 C1729.5701,340.4173 1810.9202,340.4173 1810.9202,350.4173 L1810.9202,410.4613 C1810.9202,420.4613 1729.5701,420.4613 1729.5701,420.4613 C1729.5701,420.4613 1648.22,420.4613 1648.22,410.4613 L1648.22,350.4173" fill="#FFFFFF" style="stroke:#000000;stroke-width:1;"/><path d="M1648.22,350.4173 C1648.22,360.4173 1729.5701,360.4173 1729.5701,360.4173 C1729.5701,360.4173 1810.9202,360.4173 1810.9202,350.4173" fill="none" style="stroke:#000000;stroke-width:1;"/><text fill="#000000" font-family="Verdana" font-size="14" lengthAdjust="spacing" textLength="107.0508" x="1658.22" y="378.4925">data/state.json</text><text fill="#000000" font-family="Verdana" font-size="14" lengthAdjust="spacing" textLength="142.7002" x="1658.22" y="395.5071">masterKey, devices,</text><text fill="#000000" font-family="Verdana" font-size="14" lengthAdjust="spacing" textLength="86.0576" x="1658.22" y="412.5218">adminToken</text></g><!--entity TokenFile--><g class="entity" data-qualified-name="Host.TokenFile" data-source-line="22" id="ent0013"><rect fill="#FFFFFF" height="40.0146" rx="2.5" ry="2.5" style="stroke:#000000;stroke-width:1;" width="161.8105" x="1648.67" y="636.4373"/><polygon fill="#FFFFFF" points="1793.4805,641.4373,1793.4805,655.4373,1805.4805,655.4373,1805.4805,647.4373,1799.4805,641.4373,1793.4805,641.4373" style="stroke:#000000;stroke-width:1;stroke-linejoin:miter;stroke-miterlimit:10;"/><line style="stroke:#000000;stroke-width:1;" x1="1799.4805" x2="1799.4805" y1="641.4373" y2="647.4373"/><line style="stroke:#000000;stroke-width:1;" x1="1805.4805" x2="1799.4805" y1="647.4373" y2="647.4373"/><text fill="#000000" font-family="Verdana" font-size="14" lengthAdjust="spacing" textLength="131.8105" x="1658.67" y="663.5125">data/.admin-token</text></g><!--entity ClientApp--><g class="entity" data-qualified-name="Host.Node.ClientApp" data-source-line="14" id="ent0007"><rect fill="#FFFFFF" height="64.0293" rx="2.5" ry="2.5" style="stroke:#000000;stroke-width:1;" width="168.1533" x="1160.28" y="343.4273"/><rect fill="#FFFFFF" height="10" style="stroke:#000000;stroke-width:1;" width="15" x="1308.4333" y="348.4273"/><rect fill="#FFFFFF" height="2" style="stroke:#000000;stroke-width:1;" width="4" x="1306.4333" y="350.4273"/><rect fill="#FFFFFF" height="2" style="stroke:#000000;stroke-width:1;" width="4" x="1306.4333" y="354.4273"/><text fill="#000000" font-family="Verdana" font-size="14" lengthAdjust="spacing" textLength="128.1533" x="1175.28" y="377.5025">client Express app</text><text fill="#000000" font-family="Verdana" font-size="14" lengthAdjust="spacing" textLength="119.54" x="1175.28" y="394.5171">127.0.0.1:21891</text></g><!--entity AdminApp--><g class="entity" data-qualified-name="Host.Node.AdminApp" data-source-line="15" id="ent0008"><rect fill="#FFFFFF" height="64.0293" rx="2.5" ry="2.5" style="stroke:#000000;stroke-width:1;" width="173.9092" x="1157.4" y="442.4273"/><rect fill="#FFFFFF" height="10" style="stroke:#000000;stroke-width:1;" width="15" x="1311.3092" y="447.4273"/><rect fill="#FFFFFF" height="2" style="stroke:#000000;stroke-width:1;" width="4" x="1309.3092" y="449.4273"/><rect fill="#FFFFFF" height="2" style="stroke:#000000;stroke-width:1;" width="4" x="1309.3092" y="453.4273"/><text fill="#000000" font-family="Verdana" font-size="14" lengthAdjust="spacing" textLength="133.9092" x="1172.4" y="476.5025">admin Express app</text><text fill="#000000" font-family="Verdana" font-size="14" lengthAdjust="spacing" textLength="119.54" x="1172.4" y="493.5171">127.0.0.1:21900</text></g><!--entity Browser--><g class="entity" data-qualified-name="Browser" data-source-line="6" id="ent0001"><ellipse cx="60.875" cy="345.4373" fill="#FFFFFF" rx="8" ry="8" style="stroke:#000000;stroke-width:1;"/><path d="M60.875,353.4373 L60.875,380.4373 M47.875,361.4373 L73.875,361.4373 M60.875,380.4373 L47.875,395.4373 M60.875,380.4373 L73.875,395.4373" fill="none" style="stroke:#000000;stroke-width:1;"/><text fill="#000000" font-family="Verdana" font-size="14" lengthAdjust="spacing" textLength="99.75" x="11" y="411.5125">Browser client</text></g><!--entity Operator--><g class="entity" data-qualified-name="Operator" data-source-line="7" id="ent0002"><ellipse cx="730.4133" cy="717.4373" fill="#FFFFFF" rx="8" ry="8" style="stroke:#000000;stroke-width:1;"/><path d="M730.4133,725.4373 L730.4133,752.4373 M717.4133,733.4373 L743.4133,733.4373 M730.4133,752.4373 L717.4133,767.4373 M730.4133,752.4373 L743.4133,767.4373" fill="none" style="stroke:#000000;stroke-width:1;"/><text fill="#000000" font-family="Verdana" font-size="14" lengthAdjust="spacing" textLength="100.6865" x="680.07" y="783.5125">Local operator</text></g><!--entity Edge--><g class="entity" data-qualified-name="Edge" data-source-line="8" id="ent0003"><path d="M298.3749,352.9694 C301.213,347.0934 305.0794,346.6075 309.9419,350.5954 C313.276,344.4886 318.4907,344.6812 321.8651,350.5553 C324.4727,344.7445 328.2601,343.9723 332.6806,348.6936 C335.5883,344.5242 340.1404,343.6675 342.6063,349.1481 C345.1953,342.4148 351.1267,341.5617 355.1057,347.8097 C357.4492,341.0655 361.9386,340.6594 366.4169,345.7734 C369.5341,341.3682 373.1789,341.588 376.1389,345.9478 C380.3392,340.6627 385.3936,340.6917 388.4842,347.1176 C391.6714,342.2041 396.4694,342.4961 398.7993,347.969 C402.6359,341.6646 407.7237,342.721 411.5431,347.9879 C415.2965,343.8517 420.0527,344.6761 421.6125,350.2603 C425.2261,343.692 431.1944,344.4152 433.9955,351.0237 C437.481,345.957 441.7848,347.3673 443.9984,352.2966 C447.6187,347.1125 453.3152,348.1124 456.0807,353.2931 C462.4118,356.1559 462.5464,361.8811 456.7163,365.3832 C461.1507,368.6977 461.3909,373.401 456.3706,376.4193 C461.6537,379.3854 461.7237,384.6676 456.5032,387.7566 C462.3919,392.4896 461.1216,397.4361 454.4513,400.0776 C451.6616,405.3443 447.8478,407.0223 443.354,401.8975 C439.5421,407.0303 435.6276,405.5176 432.6865,400.9409 C429.8373,405.3774 425.0169,406.2907 422.3586,400.7433 C420.133,405.8023 416.0031,407.7982 411.7394,402.9218 C408.074,408.379 402.7722,408.0456 400.3724,401.7026 C397.4182,408.8552 392.0462,408.717 387.2588,403.6737 C383.7735,408.2638 380.1604,409.198 376.5383,403.8208 C372.1195,408.9786 368.0771,407.9429 365.561,401.948 C362.6633,406.3939 358.2007,406.6257 355.2385,402.0216 C351.7727,406.9373 346.8268,406.9225 344.1146,401.2314 C341.4165,407.1531 337.0697,407.0775 333.2147,402.4238 C328.7661,408.5774 324.7381,408.7533 320.6128,402.1055 C316.0081,407.6779 312.1667,407.2211 308.9712,400.744 C306.4183,405.232 301.9922,406.5833 298.9634,401.2278 C292.2181,398.6695 291.3111,393.2736 296.8716,388.6661 C290.5744,385.8706 288.1808,381.0847 294.2341,375.7644 C290.9586,371.1853 290.651,367.0753 297.1905,365.258 C291.3836,360.8108 291.3381,356.1786 298.3749,352.9694" fill="#FFFFFF" style="stroke:#000000;stroke-width:1;"/><text fill="#000000" font-family="Verdana" font-size="14" lengthAdjust="spacing" textLength="110.7422" x="304.75" y="372.5025">Cloudflare Edge</text><text fill="#000000" font-family="Verdana" font-size="14" lengthAdjust="spacing" textLength="142.584" x="304.75" y="389.5171">your sync hostname</text></g><g class="entity" data-qualified-name="GMN25" data-source-line="40" id="ent0026"><path d="M1104.49,150.6373 L1104.49,192.2359 L1384.2205,192.2359 L1384.2205,160.6373 L1374.2205,150.6373 L1104.49,150.6373" fill="#FFFFFF" style="stroke:#000000;stroke-width:1;"/><path d="M1374.2205,150.6373 L1374.2205,160.6373 L1384.2205,160.6373 L1374.2205,150.6373" fill="#FFFFFF" style="stroke:#000000;stroke-width:1;"/><text fill="#000000" font-family="Verdana" font-size="13" lengthAdjust="spacing" textLength="213.6812" x="1110.49" y="168.7071">The tunnel forwards only 21891.</text><text fill="#000000" font-family="Verdana" font-size="13" lengthAdjust="spacing" textLength="258.7305" x="1110.49" y="184.5064">/admin and /api/local/* stay local-only.</text></g><g class="entity" data-qualified-name="GMN28" data-source-line="45" id="ent0029"><path d="M1105.36,58.7373 L1105.36,116.1353 L1383.3576,116.1353 L1383.3576,68.7373 L1373.3576,58.7373 L1105.36,58.7373" fill="#FFFFFF" style="stroke:#000000;stroke-width:1;"/><path d="M1373.3576,58.7373 L1373.3576,68.7373 L1383.3576,68.7373 L1373.3576,58.7373" fill="#FFFFFF" style="stroke:#000000;stroke-width:1;"/><text fill="#000000" font-family="Verdana" font-size="13" lengthAdjust="spacing" textLength="228.522" x="1111.36" y="76.8071">Public routes use security headers,</text><text fill="#000000" font-family="Verdana" font-size="13" lengthAdjust="spacing" textLength="256.9976" x="1111.36" y="92.6064">per-request HMAC, timestamp window,</text><text fill="#000000" font-family="Verdana" font-size="13" lengthAdjust="spacing" textLength="187.8779" x="1111.36" y="108.4058">and nonce replay protection.</text></g><!--link Browser to Edge--><g class="link" data-entity-1="ent0001" data-entity-2="ent0003" data-link-type="dependency" data-source-line="25" id="lnk14"><path d="M111.15,375.4373 C158.87,375.4373 227.19,375.4373 284.45,375.4373" fill="none" id="Browser-to-Edge" style="stroke:#000000;stroke-width:1;"/><polygon fill="#000000" points="289.45,375.4373,280.45,371.4373,284.45,375.4373,280.45,379.4373,289.45,375.4373" style="stroke:#000000;stroke-width:1;stroke-linejoin:miter;stroke-miterlimit:10;"/><text fill="#000000" font-family="Verdana" font-size="13" lengthAdjust="spacing" textLength="117.5459" x="141.75" y="372.5071">HTTPS UI and API</text></g><!--link Edge to Tunnel--><g class="link" data-entity-1="ent0003" data-entity-2="ent0005" data-link-type="dependency" data-source-line="26" id="lnk15"><path d="M462.79,375.4373 C516.47,375.4373 580.52,375.4373 634.89,375.4373" fill="none" id="Edge-to-Tunnel" style="stroke:#000000;stroke-width:1;"/><polygon fill="#000000" points="639.89,375.4373,630.89,371.4373,634.89,375.4373,630.89,379.4373,639.89,375.4373" style="stroke:#000000;stroke-width:1;stroke-linejoin:miter;stroke-miterlimit:10;"/><text fill="#000000" font-family="Verdana" font-size="13" lengthAdjust="spacing" textLength="114.6704" x="493.33" y="372.5071">Cloudflare Tunnel</text></g><!--link Tunnel to ClientApp--><g class="link" data-entity-1="ent0005" data-entity-2="ent0007" data-link-type="dependency" data-source-line="27" id="lnk16"><path d="M820.88,375.4373 C916.47,375.4373 1061.78,375.4373 1154.97,375.4373" fill="none" id="Tunnel-to-ClientApp" style="stroke:#000000;stroke-width:1;"/><polygon fill="#000000" points="1159.97,375.4373,1150.97,371.4373,1154.97,375.4373,1150.97,379.4373,1159.97,375.4373" style="stroke:#000000;stroke-width:1;stroke-linejoin:miter;stroke-miterlimit:10;"/><text fill="#000000" font-family="Verdana" font-size="13" lengthAdjust="spacing" textLength="96.021" x="914.7512" y="356.5071">HTTP loopback</text><text fill="#000000" font-family="Verdana" font-size="13" lengthAdjust="spacing" textLength="127.5435" x="898.99" y="372.3064">/api/* and static UI</text></g><!--link ClientApp to PublicDir--><g class="link" data-entity-1="ent0007" data-entity-2="ent0009" data-link-type="dependency" data-source-line="29" id="lnk17"><path d="M1328.7,358.5373 C1434.53,337.0773 1607.8098,301.9312 1685.5098,286.1712" fill="none" id="ClientApp-to-PublicDir" style="stroke:#000000;stroke-width:1;"/><polygon fill="#000000" points="1690.41,285.1773,1680.7945,283.0462,1685.5098,286.1712,1682.3847,290.8865,1690.41,285.1773" style="stroke:#000000;stroke-width:1;stroke-linejoin:miter;stroke-miterlimit:10;"/><text fill="#000000" font-family="Verdana" font-size="13" lengthAdjust="spacing" textLength="189.7251" x="1421.72" y="298.1971">serves index.html and app.js</text></g><!--link ClientApp to SharedDir--><g class="link" data-entity-1="ent0007" data-entity-2="ent0011" data-link-type="dependency" data-source-line="30" id="lnk18"><path d="M1328.65,389.3973 C1355.91,393.9273 1386.35,398.9473 1414.22,403.4373 C1504.83,418.0573 1530.1,409.8173 1618.22,435.4373 C1641.79,442.2973 1662.4428,450.845 1682.7928,460.385" fill="none" id="ClientApp-to-SharedDir" style="stroke:#000000;stroke-width:1;"/><polygon fill="#000000" points="1687.32,462.5073,1680.8689,455.0653,1682.7928,460.385,1677.4731,462.3089,1687.32,462.5073" style="stroke:#000000;stroke-width:1;stroke-linejoin:miter;stroke-miterlimit:10;"/><text fill="#000000" font-family="Verdana" font-size="13" lengthAdjust="spacing" textLength="202.2998" x="1415.22" y="400.5071">list files and stream downloads</text></g><!--link ClientApp to State--><g class="link" data-entity-1="ent0007" data-entity-2="ent0012" data-link-type="dependency" data-source-line="31" id="lnk19"><path d="M1328.66,375.8673 C1404.23,376.3173 1518.7,377.1373 1618.22,378.4373 C1627.8,378.5673 1632.8507,378.6321 1642.8207,378.8021" fill="none" id="ClientApp-to-State" style="stroke:#000000;stroke-width:1;"/><polygon fill="#000000" points="1647.82,378.8873,1638.8895,374.7344,1642.8207,378.8021,1638.7531,382.7333,1647.82,378.8873" style="stroke:#000000;stroke-width:1;stroke-linejoin:miter;stroke-miterlimit:10;"/><text fill="#000000" font-family="Verdana" font-size="13" lengthAdjust="spacing" textLength="168.5811" x="1432.22" y="373.5171">masterKey and device list</text></g><!--link Operator to AdminApp--><g class="link" data-entity-1="ent0002" data-entity-2="ent0008" data-link-type="dependency" data-source-line="33" id="lnk20"><path d="M781.02,753.9173 C851.42,760.5973 982.02,763.4973 1074.49,709.4373 C1155.38,662.1573 1206.0508,563.6289 1228.6808,511.1289" fill="none" id="Operator-to-AdminApp" style="stroke:#000000;stroke-width:1;"/><polygon fill="#000000" points="1230.66,506.5373,1223.4242,513.2188,1228.6808,511.1289,1230.7707,516.3855,1230.66,506.5373" style="stroke:#000000;stroke-width:1;stroke-linejoin:miter;stroke-miterlimit:10;"/><text fill="#000000" font-family="Verdana" font-size="13" lengthAdjust="spacing" textLength="222.4409" x="851.49" y="706.5071">local browser or SSH port forward</text></g><!--link AdminApp to AdminDir--><g class="link" data-entity-1="ent0008" data-entity-2="ent0010" data-link-type="dependency" data-source-line="34" id="lnk21"><path d="M1308.25,506.9073 C1339.33,521.4673 1377.89,537.3773 1414.22,546.4373 C1510.95,570.5573 1624.03,574.0281 1684.21,574.0181" fill="none" id="AdminApp-to-AdminDir" style="stroke:#000000;stroke-width:1;"/><polygon fill="#000000" points="1689.21,574.0173,1680.21,570.0173,1684.21,574.0173,1680.21,578.0173,1689.21,574.0173" style="stroke:#000000;stroke-width:1;stroke-linejoin:miter;stroke-miterlimit:10;"/><text fill="#000000" font-family="Verdana" font-size="13" lengthAdjust="spacing" textLength="106.7485" x="1463.22" y="543.5071">serves admin UI</text></g><!--link AdminApp to State--><g class="link" data-entity-1="ent0008" data-entity-2="ent0012" data-link-type="dependency" data-source-line="35" id="lnk22"><path d="M1331.49,483.3973 C1408.69,488.3973 1523.97,488.2673 1618.22,456.4373 C1624.75,454.2373 1644.8,440.6776 1668.84,423.6476" fill="none" id="AdminApp-to-State" style="stroke:#000000;stroke-width:1;"/><polygon fill="#000000" points="1672.92,420.7573,1663.2638,422.6958,1668.84,423.6476,1667.8882,429.2238,1672.92,420.7573" style="stroke:#000000;stroke-width:1;stroke-linejoin:miter;stroke-miterlimit:10;"/><text fill="#000000" font-family="Verdana" font-size="13" lengthAdjust="spacing" textLength="186.4751" x="1423.22" y="453.5071">device/key/token operations</text></g><!--link AdminApp to SharedDir--><g class="link" data-entity-1="ent0008" data-entity-2="ent0011" data-link-type="dependency" data-source-line="36" id="lnk23"><path d="M1331.47,498.2973 C1357.82,504.5173 1387.02,510.3373 1414.22,513.4373 C1504.31,523.7073 1528.35,525.4373 1618.22,513.4373 C1641.44,510.3373 1661.9169,505.1839 1682.4069,498.9439" fill="none" id="AdminApp-to-SharedDir" style="stroke:#000000;stroke-width:1;"/><polygon fill="#000000" points="1687.19,497.4873,1677.4151,496.2828,1682.4069,498.9439,1679.7457,503.9358,1687.19,497.4873" style="stroke:#000000;stroke-width:1;stroke-linejoin:miter;stroke-miterlimit:10;"/><text fill="#000000" font-family="Verdana" font-size="13" lengthAdjust="spacing" textLength="136.043" x="1448.22" y="510.5071">status and file listing</text></g><!--link AdminApp to TokenFile--><g class="link" data-entity-1="ent0008" data-entity-2="ent0013" data-link-type="dependency" data-source-line="37" id="lnk24"><path d="M1279.99,506.9173 C1312.25,535.2873 1362.94,575.2973 1414.22,597.4373 C1489.67,630.0073 1577.975,644.1381 1643.245,650.6881" fill="none" id="AdminApp-to-TokenFile" style="stroke:#000000;stroke-width:1;"/><polygon fill="#000000" points="1648.22,651.1873,1639.6644,646.3086,1643.245,650.6881,1638.8656,654.2687,1648.22,651.1873" style="stroke:#000000;stroke-width:1;stroke-linejoin:miter;stroke-miterlimit:10;"/><text fill="#000000" font-family="Verdana" font-size="13" lengthAdjust="spacing" textLength="105.8789" x="1463.72" y="594.5071">local token copy</text></g><!--link AdminApp to GMN25--><g class="link" data-entity-1="ent0008" data-entity-2="ent0026" data-link-type="association" data-source-line="40" id="lnk27"><path d="M1157.19,480.0173 C1092.45,478.8973 1007.82,465.1973 962.49,407.9373 C887.96,313.7773 1074.91,230.3673 1179.48,192.7073" fill="none" id="AdminApp-GMN25" style="stroke:#000000;stroke-width:1;stroke-dasharray:7,7;"/></g><!--link ClientApp to GMN28--><g class="link" data-entity-1="ent0007" data-entity-2="ent0029" data-link-type="association" data-source-line="45" id="lnk30"><path d="M1160.19,349.0473 C1054.09,311.4273 893.43,237.2973 962.49,150.9373 C996.41,108.5373 1052.04,90.6373 1104.96,84.1073" fill="none" id="ClientApp-GMN28" style="stroke:#000000;stroke-width:1;stroke-dasharray:7,7;"/></g><?plantuml-src TLHDRnen4BtxLqmvLi26NDhaK8ccgOZw5GbwusBM1jnuFQxj3LbL_UyTZvSD9AgGODbvRvxdpOpVfBrkD7WhZHDMRnCaX61s-mJA15qdWqw8P9BLK5jiLUnShI2qBXdY9VHeSTS98Uk40KOV0nwY3eGrsgKHo0ZzgoFYAzRI0deT9Frdn8_-Zs056DtadwsLGSEjskcrwx0Da9LXZp4vsMZcvQ0G3fM6qO82qCXwRrm9yei_0g36ngEZqy2e7XAhjSjf5AJMEMslEJlpLln24B4a_fw_VS1QnxXsLCYZ3jDVaR4SonelL7BjSFla0t50UhzsiyjtqmlwpAulP--lPio-OTpS-vS9f6gC-p__wkA2-VCCA_I_-RnRj8gi7_bsOqrTCUQUdp-PS1BdzDLpYlDet6TxIdZ9poMkP98R6ScH_5J599Cc7z2jNIDZqk6BxiQWzACXfyPhnoehVD2kfCfuIYD3CbiQXJxDb66JDE2OyTbOBQYcupHD9X-usN0DYzNgVWa_xq0w1VFxEy7lCw0qZY0duzCtimzbr61wdmiiej_8-c7jAkbDzPOJv-fCJJ92F1CoVV2Jw3mB4OnJ-ccwJurbAhMBR7b16umacZKqc5kgCFPIGSi651wSHQbUCRDln1eyPbAncLC9SLmVnX-78Wlnfcrw3oc-N2x0Oo1r30SPb1Z00_EiiZA7PC8PxdYYSeRgGNSLjw_VQRemuWl2IV7PsBOKdYtW2epRdHE66HYAA08r-YxlEyblC2Li0BUdMx3QwtwVZnL6G6Sxu9sR4g8g9MLvxZPdfvxJiReYDSc4gT24o4Alv4wNjWm316mJkTNIRaHTjy6a3lPQqZR5CQ78bKdGlrjDRLzycz-C8L-TfDXuED3mu26Z90iwQchGT1jt-Sf9vVuzESq_?></g></svg>