<svg xmlns="http://www.w3.org/2000/svg" xmlns:xlink="http://www.w3.org/1999/xlink" contentStyleType="text/css" data-diagram-type="ACTIVITY" height="868px" preserveAspectRatio="none" style="width:956px;height:868px;background:#FFFFFF;" version="1.1" viewBox="0 0 956 868" width="956px" zoomAndPan="magnify"><?plantuml 1.2026.6?><defs/><g><g class="title" data-source-line="3"><text fill="#000000" font-family="Verdana" font-size="22" font-weight="700" lengthAdjust="spacing" textLength="526.1953" x="214.1836" y="37.1182">cloudsyncd service restart and verification</text></g><ellipse cx="476.2813" cy="67.7373" fill="#FFFFFF" rx="10" ry="10" style="stroke:#000000;stroke-width:1;"/><rect fill="#FFFFFF" height="49.168" rx="12.5" ry="12.5" style="stroke:#000000;stroke-width:1;" width="214.1914" x="369.1855" y="97.7373"/><text fill="#000000" font-family="Verdana" font-size="12" lengthAdjust="spacing" textLength="194.1914" x="379.1855" y="119.8018">Stop the old foreground process</text><text fill="#000000" font-family="Verdana" font-size="12" lengthAdjust="spacing" textLength="69.375" x="379.1855" y="134.3857">with Ctrl+C</text><rect fill="#FFFFFF" height="49.168" rx="12.5" ry="12.5" style="stroke:#000000;stroke-width:1;" width="179.627" x="386.4678" y="166.9053"/><text fill="#000000" font-family="Verdana" font-size="12" lengthAdjust="spacing" textLength="159.627" x="396.4678" y="188.9697">Start the current checkout</text><text fill="#000000" font-family="Verdana" font-size="12" lengthAdjust="spacing" textLength="140.9414" x="396.4678" y="203.5537">cloudsyncd server start</text><rect fill="#000000" height="6" rx="2.5" ry="2.5" style="stroke:#000000;stroke-width:1;" width="930.5625" x="11" y="236.0732"/><rect fill="#FFFFFF" height="34.584" rx="12.5" ry="12.5" style="stroke:#000000;stroke-width:1;" width="216.6055" x="110.1396" y="262.0732"/><text fill="#000000" font-family="Verdana" font-size="12" lengthAdjust="spacing" textLength="196.6055" x="120.1396" y="284.1377">GET 127.0.0.1:21891/api/status</text><polygon fill="#FFFFFF" points="153.1003,316.6572,283.7844,316.6572,295.7844,328.6572,283.7844,340.6572,153.1003,340.6572,141.1003,328.6572,153.1003,316.6572" style="stroke:#000000;stroke-width:1;stroke-linejoin:miter;stroke-miterlimit:10;"/><text fill="#000000" font-family="Verdana" font-size="11" lengthAdjust="spacing" textLength="130.6841" x="153.1003" y="333.032">client port returns 200?</text><text fill="#000000" font-family="Verdana" font-size="11" lengthAdjust="spacing" textLength="18.7935" x="122.3069" y="326.3477">yes</text><text fill="#000000" font-family="Verdana" font-size="11" lengthAdjust="spacing" textLength="13.6372" x="295.7844" y="326.3477">no</text><rect fill="#FFFFFF" height="34.584" rx="12.5" ry="12.5" style="stroke:#000000;stroke-width:1;" width="161.873" x="23" y="350.6572"/><text fill="#000000" font-family="Verdana" font-size="12" lengthAdjust="spacing" textLength="141.873" x="33" y="372.7217">Receiver origin is ready</text><rect fill="#FFFFFF" height="34.584" rx="12.5" ry="12.5" style="stroke:#000000;stroke-width:1;" width="256.1504" x="204.873" y="350.6572"/><text fill="#000000" font-family="Verdana" font-size="12" lengthAdjust="spacing" textLength="236.1504" x="214.873" y="372.7217">Check the Node process and server log</text><ellipse cx="332.9482" cy="416.2412" fill="none" rx="11" ry="11" style="stroke:#000000;stroke-width:1;"/><ellipse cx="332.9482" cy="416.2412" fill="#FFFFFF" rx="6" ry="6" style="stroke:#000000;stroke-width:1;"/><rect fill="#FFFFFF" height="34.584" rx="12.5" ry="12.5" style="stroke:#000000;stroke-width:1;" width="249.3828" x="566.5732" y="262.0732"/><text fill="#000000" font-family="Verdana" font-size="12" lengthAdjust="spacing" textLength="229.3828" x="576.5732" y="284.1377">GET 127.0.0.1:21900/api/local/status</text><polygon fill="#FFFFFF" points="623.6614,316.6572,758.8679,316.6572,770.8679,328.6572,758.8679,340.6572,623.6614,340.6572,611.6614,328.6572,623.6614,316.6572" style="stroke:#000000;stroke-width:1;stroke-linejoin:miter;stroke-miterlimit:10;"/><text fill="#000000" font-family="Verdana" font-size="11" lengthAdjust="spacing" textLength="135.2065" x="623.6614" y="333.032">admin port returns 200?</text><text fill="#000000" font-family="Verdana" font-size="11" lengthAdjust="spacing" textLength="18.7935" x="592.8679" y="326.3477">yes</text><text fill="#000000" font-family="Verdana" font-size="11" lengthAdjust="spacing" textLength="13.6372" x="770.8679" y="326.3477">no</text><rect fill="#FFFFFF" height="34.584" rx="12.5" ry="12.5" style="stroke:#000000;stroke-width:1;" width="144.2129" x="509.0234" y="350.6572"/><text fill="#000000" font-family="Verdana" font-size="12" lengthAdjust="spacing" textLength="124.2129" x="519.0234" y="372.7217">Local admin is ready</text><rect fill="#FFFFFF" height="34.584" rx="12.5" ry="12.5" style="stroke:#000000;stroke-width:1;" width="256.3262" x="673.2363" y="350.6572"/><text fill="#000000" font-family="Verdana" font-size="12" lengthAdjust="spacing" textLength="236.3262" x="683.2363" y="372.7217">Check ADMIN_HOST and ADMIN_PORT</text><ellipse cx="801.3994" cy="416.2412" fill="none" rx="11" ry="11" style="stroke:#000000;stroke-width:1;"/><ellipse cx="801.3994" cy="416.2412" fill="#FFFFFF" rx="6" ry="6" style="stroke:#000000;stroke-width:1;"/><rect fill="#000000" height="6" rx="2.5" ry="2.5" style="stroke:#000000;stroke-width:1;" width="930.5625" x="11" y="447.2412"/><rect fill="#FFFFFF" height="34.584" rx="12.5" ry="12.5" style="stroke:#000000;stroke-width:1;" width="217.4434" x="367.5596" y="521.9255"/><text fill="#000000" font-family="Verdana" font-size="12" lengthAdjust="spacing" textLength="197.4434" x="377.5596" y="543.99">GET public hostname /api/status</text><polygon fill="#FFFFFF" points="396.7031,576.5095,555.8594,576.5095,567.8594,588.5095,555.8594,600.5095,396.7031,600.5095,384.7031,588.5095,396.7031,576.5095" style="stroke:#000000;stroke-width:1;stroke-linejoin:miter;stroke-miterlimit:10;"/><text fill="#000000" font-family="Verdana" font-size="11" lengthAdjust="spacing" textLength="159.1563" x="396.7031" y="592.8843">public endpoint returns 200?</text><text fill="#000000" font-family="Verdana" font-size="11" lengthAdjust="spacing" textLength="18.7935" x="365.9097" y="586.2">yes</text><text fill="#000000" font-family="Verdana" font-size="11" lengthAdjust="spacing" textLength="13.6372" x="567.8594" y="586.2">no</text><rect fill="#FFFFFF" height="34.584" rx="12.5" ry="12.5" style="stroke:#000000;stroke-width:1;" width="187.3613" x="269.3032" y="610.5095"/><text fill="#000000" font-family="Verdana" font-size="12" lengthAdjust="spacing" textLength="167.3613" x="279.3032" y="632.574">Tunnel and origin are ready</text><rect fill="#FFFFFF" height="34.584" rx="12.5" ry="12.5" style="stroke:#000000;stroke-width:1;" width="225.8281" x="476.6646" y="610.5095"/><text fill="#000000" font-family="Verdana" font-size="12" lengthAdjust="spacing" textLength="205.8281" x="486.6646" y="632.574">Check cloudflared process and log</text><ellipse cx="589.5786" cy="676.0935" fill="none" rx="11" ry="11" style="stroke:#000000;stroke-width:1;"/><ellipse cx="589.5786" cy="676.0935" fill="#FFFFFF" rx="6" ry="6" style="stroke:#000000;stroke-width:1;"/><polygon fill="#FFFFFF" points="401.1343,473.2412,551.4282,473.2412,563.4282,485.2412,551.4282,497.2412,401.1343,497.2412,389.1343,485.2412,401.1343,473.2412" style="stroke:#000000;stroke-width:1;stroke-linejoin:miter;stroke-miterlimit:10;"/><text fill="#000000" font-family="Verdana" font-size="11" lengthAdjust="spacing" textLength="18.7935" x="480.2813" y="508.3003">yes</text><text fill="#000000" font-family="Verdana" font-size="11" lengthAdjust="spacing" textLength="150.2939" x="401.1343" y="489.616">Cloudflare Tunnel enabled?</text><text fill="#000000" font-family="Verdana" font-size="11" lengthAdjust="spacing" textLength="13.6372" x="563.4282" y="482.9316">no</text><polygon fill="#FFFFFF" points="476.2813,707.0935,488.2813,719.0935,476.2813,731.0935,464.2813,719.0935,476.2813,707.0935" style="stroke:#000000;stroke-width:1;stroke-linejoin:miter;stroke-miterlimit:10;"/><rect fill="#FFFFFF" height="49.168" rx="12.5" ry="12.5" style="stroke:#000000;stroke-width:1;" width="209.3691" x="371.5967" y="751.0935"/><text fill="#000000" font-family="Verdana" font-size="12" lengthAdjust="spacing" textLength="189.3691" x="381.5967" y="773.158">Keep the Node process running</text><text fill="#000000" font-family="Verdana" font-size="12" lengthAdjust="spacing" textLength="156.6914" x="381.5967" y="787.7419">or use a process manager</text><path d="M507.2813,810.4622 L507.2813,827.2615 L487.2813,831.2615 L507.2813,835.2615 L507.2813,852.0608 A0,0 0 0 0 507.2813,852.0608 L854.189,852.0608 A0,0 0 0 0 854.189,852.0608 L854.189,820.4622 L844.189,810.4622 L507.2813,810.4622 A0,0 0 0 0 507.2813,810.4622" fill="#FFFFFF" style="stroke:#000000;stroke-width:1;"/><path d="M844.189,810.4622 L844.189,820.4622 L854.189,820.4622 L844.189,810.4622" fill="#FFFFFF" style="stroke:#000000;stroke-width:1;"/><text fill="#000000" font-family="Verdana" font-size="13" lengthAdjust="spacing" textLength="310.54" x="513.2813" y="828.532">A browser refresh can load changed static files,</text><text fill="#000000" font-family="Verdana" font-size="13" lengthAdjust="spacing" textLength="325.9077" x="513.2813" y="844.3313">but an old Node process keeps its old route table.</text><ellipse cx="476.2813" cy="831.2615" fill="none" rx="11" ry="11" style="stroke:#000000;stroke-width:1;"/><ellipse cx="476.2813" cy="831.2615" fill="#FFFFFF" rx="6" ry="6" style="stroke:#000000;stroke-width:1;"/><line style="stroke:#000000;stroke-width:1;" x1="476.2813" x2="476.2813" y1="77.7373" y2="97.7373"/><polygon fill="#000000" points="472.2813,87.7373,476.2813,97.7373,480.2813,87.7373,476.2813,91.7373" style="stroke:#000000;stroke-width:1;stroke-linejoin:miter;stroke-miterlimit:10;"/><line style="stroke:#000000;stroke-width:1;" x1="476.2813" x2="476.2813" y1="146.9053" y2="166.9053"/><polygon fill="#000000" points="472.2813,156.9053,476.2813,166.9053,480.2813,156.9053,476.2813,160.9053" style="stroke:#000000;stroke-width:1;stroke-linejoin:miter;stroke-miterlimit:10;"/><line style="stroke:#000000;stroke-width:1;" x1="332.9482" x2="332.9482" y1="385.2412" y2="405.2412"/><polygon fill="#000000" points="328.9482,395.2412,332.9482,405.2412,336.9482,395.2412,332.9482,399.2412" style="stroke:#000000;stroke-width:1;stroke-linejoin:miter;stroke-miterlimit:10;"/><line style="stroke:#000000;stroke-width:1;" x1="141.1003" x2="103.9365" y1="328.6572" y2="328.6572"/><line style="stroke:#000000;stroke-width:1;" x1="103.9365" x2="103.9365" y1="328.6572" y2="350.6572"/><polygon fill="#000000" points="99.9365,340.6572,103.9365,350.6572,107.9365,340.6572,103.9365,344.6572" style="stroke:#000000;stroke-width:1;stroke-linejoin:miter;stroke-miterlimit:10;"/><line style="stroke:#000000;stroke-width:1;" x1="295.7844" x2="332.9482" y1="328.6572" y2="328.6572"/><line style="stroke:#000000;stroke-width:1;" x1="332.9482" x2="332.9482" y1="328.6572" y2="350.6572"/><polygon fill="#000000" points="328.9482,340.6572,332.9482,350.6572,336.9482,340.6572,332.9482,344.6572" style="stroke:#000000;stroke-width:1;stroke-linejoin:miter;stroke-miterlimit:10;"/><line style="stroke:#000000;stroke-width:1;" x1="103.9365" x2="103.9365" y1="385.2412" y2="432.2412"/><line style="stroke:#000000;stroke-width:1;" x1="103.9365" x2="218.4424" y1="432.2412" y2="432.2412"/><line style="stroke:#000000;stroke-width:1;" x1="218.4424" x2="218.4424" y1="432.2412" y2="447.2412"/><polygon fill="#000000" points="214.4424,437.2412,218.4424,447.2412,222.4424,437.2412,218.4424,441.2412" style="stroke:#000000;stroke-width:1;stroke-linejoin:miter;stroke-miterlimit:10;"/><line style="stroke:#000000;stroke-width:1;" x1="218.4424" x2="218.4424" y1="296.6572" y2="316.6572"/><polygon fill="#000000" points="214.4424,306.6572,218.4424,316.6572,222.4424,306.6572,218.4424,310.6572" style="stroke:#000000;stroke-width:1;stroke-linejoin:miter;stroke-miterlimit:10;"/><line style="stroke:#000000;stroke-width:1;" x1="801.3994" x2="801.3994" y1="385.2412" y2="405.2412"/><polygon fill="#000000" points="797.3994,395.2412,801.3994,405.2412,805.3994,395.2412,801.3994,399.2412" style="stroke:#000000;stroke-width:1;stroke-linejoin:miter;stroke-miterlimit:10;"/><line style="stroke:#000000;stroke-width:1;" x1="611.6614" x2="581.1299" y1="328.6572" y2="328.6572"/><line style="stroke:#000000;stroke-width:1;" x1="581.1299" x2="581.1299" y1="328.6572" y2="350.6572"/><polygon fill="#000000" points="577.1299,340.6572,581.1299,350.6572,585.1299,340.6572,581.1299,344.6572" style="stroke:#000000;stroke-width:1;stroke-linejoin:miter;stroke-miterlimit:10;"/><line style="stroke:#000000;stroke-width:1;" x1="770.8679" x2="801.3994" y1="328.6572" y2="328.6572"/><line style="stroke:#000000;stroke-width:1;" x1="801.3994" x2="801.3994" y1="328.6572" y2="350.6572"/><polygon fill="#000000" points="797.3994,340.6572,801.3994,350.6572,805.3994,340.6572,801.3994,344.6572" style="stroke:#000000;stroke-width:1;stroke-linejoin:miter;stroke-miterlimit:10;"/><line style="stroke:#000000;stroke-width:1;" x1="581.1299" x2="581.1299" y1="385.2412" y2="432.2412"/><line style="stroke:#000000;stroke-width:1;" x1="581.1299" x2="691.2646" y1="432.2412" y2="432.2412"/><line style="stroke:#000000;stroke-width:1;" x1="691.2646" x2="691.2646" y1="432.2412" y2="447.2412"/><polygon fill="#000000" points="687.2646,437.2412,691.2646,447.2412,695.2646,437.2412,691.2646,441.2412" style="stroke:#000000;stroke-width:1;stroke-linejoin:miter;stroke-miterlimit:10;"/><line style="stroke:#000000;stroke-width:1;" x1="691.2646" x2="691.2646" y1="296.6572" y2="316.6572"/><polygon fill="#000000" points="687.2646,306.6572,691.2646,316.6572,695.2646,306.6572,691.2646,310.6572" style="stroke:#000000;stroke-width:1;stroke-linejoin:miter;stroke-miterlimit:10;"/><line style="stroke:#000000;stroke-width:1;" x1="218.4424" x2="218.4424" y1="242.0732" y2="262.0732"/><polygon fill="#000000" points="214.4424,252.0732,218.4424,262.0732,222.4424,252.0732,218.4424,256.0732" style="stroke:#000000;stroke-width:1;stroke-linejoin:miter;stroke-miterlimit:10;"/><line style="stroke:#000000;stroke-width:1;" x1="691.2646" x2="691.2646" y1="242.0732" y2="262.0732"/><polygon fill="#000000" points="687.2646,252.0732,691.2646,262.0732,695.2646,252.0732,691.2646,256.0732" style="stroke:#000000;stroke-width:1;stroke-linejoin:miter;stroke-miterlimit:10;"/><line style="stroke:#000000;stroke-width:1;" x1="476.2813" x2="476.2813" y1="216.0732" y2="236.0732"/><polygon fill="#000000" points="472.2813,226.0732,476.2813,236.0732,480.2813,226.0732,476.2813,230.0732" style="stroke:#000000;stroke-width:1;stroke-linejoin:miter;stroke-miterlimit:10;"/><line style="stroke:#000000;stroke-width:1;" x1="589.5786" x2="589.5786" y1="645.0935" y2="665.0935"/><polygon fill="#000000" points="585.5786,655.0935,589.5786,665.0935,593.5786,655.0935,589.5786,659.0935" style="stroke:#000000;stroke-width:1;stroke-linejoin:miter;stroke-miterlimit:10;"/><line style="stroke:#000000;stroke-width:1;" x1="384.7031" x2="362.9839" y1="588.5095" y2="588.5095"/><line style="stroke:#000000;stroke-width:1;" x1="362.9839" x2="362.9839" y1="588.5095" y2="610.5095"/><polygon fill="#000000" points="358.9839,600.5095,362.9839,610.5095,366.9839,600.5095,362.9839,604.5095" style="stroke:#000000;stroke-width:1;stroke-linejoin:miter;stroke-miterlimit:10;"/><line style="stroke:#000000;stroke-width:1;" x1="567.8594" x2="589.5786" y1="588.5095" y2="588.5095"/><line style="stroke:#000000;stroke-width:1;" x1="589.5786" x2="589.5786" y1="588.5095" y2="610.5095"/><polygon fill="#000000" points="585.5786,600.5095,589.5786,610.5095,593.5786,600.5095,589.5786,604.5095" style="stroke:#000000;stroke-width:1;stroke-linejoin:miter;stroke-miterlimit:10;"/><line style="stroke:#000000;stroke-width:1;" x1="362.9839" x2="362.9839" y1="645.0935" y2="692.0935"/><line style="stroke:#000000;stroke-width:1;" x1="362.9839" x2="476.2813" y1="692.0935" y2="692.0935"/><line style="stroke:#000000;stroke-width:1;" x1="476.2813" x2="476.2813" y1="692.0935" y2="707.0935"/><polygon fill="#000000" points="472.2813,697.0935,476.2813,707.0935,480.2813,697.0935,476.2813,701.0935" style="stroke:#000000;stroke-width:1;stroke-linejoin:miter;stroke-miterlimit:10;"/><line style="stroke:#000000;stroke-width:1;" x1="476.2813" x2="476.2813" y1="556.5095" y2="576.5095"/><polygon fill="#000000" points="472.2813,566.5095,476.2813,576.5095,480.2813,566.5095,476.2813,570.5095" style="stroke:#000000;stroke-width:1;stroke-linejoin:miter;stroke-miterlimit:10;"/><line style="stroke:#000000;stroke-width:1;" x1="476.2813" x2="476.2813" y1="497.2412" y2="521.9255"/><polygon fill="#000000" points="472.2813,511.9255,476.2813,521.9255,480.2813,511.9255,476.2813,515.9255" style="stroke:#000000;stroke-width:1;stroke-linejoin:miter;stroke-miterlimit:10;"/><line style="stroke:#000000;stroke-width:1;" x1="563.4282" x2="722.4927" y1="485.2412" y2="485.2412"/><polygon fill="#000000" points="718.4927,597.5095,722.4927,607.5095,726.4927,597.5095,722.4927,601.5095" style="stroke:#000000;stroke-width:1;stroke-linejoin:miter;stroke-miterlimit:10;"/><line style="stroke:#000000;stroke-width:1;" x1="722.4927" x2="722.4927" y1="485.2412" y2="719.0935"/><line style="stroke:#000000;stroke-width:1;" x1="722.4927" x2="488.2813" y1="719.0935" y2="719.0935"/><polygon fill="#000000" points="498.2813,715.0935,488.2813,719.0935,498.2813,723.0935,494.2813,719.0935" style="stroke:#000000;stroke-width:1;stroke-linejoin:miter;stroke-miterlimit:10;"/><line style="stroke:#000000;stroke-width:1;" x1="476.2813" x2="476.2813" y1="453.2412" y2="473.2412"/><polygon fill="#000000" points="472.2813,463.2412,476.2813,473.2412,480.2813,463.2412,476.2813,467.2412" style="stroke:#000000;stroke-width:1;stroke-linejoin:miter;stroke-miterlimit:10;"/><line style="stroke:#000000;stroke-width:1;" x1="476.2813" x2="476.2813" y1="731.0935" y2="751.0935"/><polygon fill="#000000" points="472.2813,741.0935,476.2813,751.0935,480.2813,741.0935,476.2813,745.0935" style="stroke:#000000;stroke-width:1;stroke-linejoin:miter;stroke-miterlimit:10;"/><line style="stroke:#000000;stroke-width:1;" x1="476.2813" x2="476.2813" y1="800.2615" y2="820.2615"/><polygon fill="#000000" points="472.2813,810.2615,476.2813,820.2615,480.2813,810.2615,476.2813,814.2615" style="stroke:#000000;stroke-width:1;stroke-linejoin:miter;stroke-miterlimit:10;"/><?plantuml-src ZPDDRzim38Rl-XNSBSM6ribbQt8OYcpOXctjqEOOe50asYQYK8O-MkJVZrAy3is2jJ1WmDPBlWz9yKtgSOSmE4siLABa48ppsSOz6miHmmCPX80nwP10iuK73DIIqOcyXDJ_QdwN_02I2xopqFg0NV1Pn4Fm1cDSyoEb7fOfkBVBHP6NR4LlSWZ82KoFPkjpMlEHFGQe7Wkb9EzM0So_V5x1TFR-l95dEfzDFrnEB_H05w9BEIv4GYrCZAEIUF3Y533bm15cJVFnhFWoJFOOpqGg-MxH81KZ7wWZ1eeIeEs-P48N4IRiH-coO5RmQs_nJtcrBoEiyzsYQgEqf2HWIsr51zsLBfyeuB9fQW7E6-sEoj1s9qYlgE972OQ3_CKAhZxz_7Pz__NcRbNP3v-_RcvN9zZb3RNrgl0iotXQfmF2AZEZ4vNUEBJ7IBNA8MyS6UXzJApbefsOqoWHby4JlrJbw5cWnsaLalyNQvwGxRE9dHxLtnI7RpN_ZZZyE_CW9CJTcds0B27wwMIdMNSO5ghcLUoJ45BN9_6uWatmZt9NXBcLjUh1Q1OIRMK5D7U2MDeZ3Md9ONmd8PjS5gzkrZE0hM15e1JhaUoRsAGoYlCwicAhVWC0?></g></svg>